<svg width="361" height="180" viewBox="0 0 361 180" fill="none" xmlns="http://www.w3.org/2000/svg">
<g clip-path="url(#clip0_2240_372)">
<path d="M-0.210938 160.573H361.211V80.9565H-0.210938V160.573Z" fill="#B3B3B3"/>
<path d="M-0.210938 146.075H361.211V80.9565H-0.210938V146.075Z" fill="#DADADA"/>
<path d="M-0.210938 125.703H361.211V117.091H-0.210938V125.703Z" fill="#C6C6C6"/>
<path d="M34.8779 114.809L-0.211914 111.739V94.4521L30.2782 97.1195C31.1668 97.1977 31.8905 97.8626 32.045 98.7411L34.8779 114.809Z" fill="#FEFEFE"/>
<path d="M-0.211914 111.739L34.8779 114.809L32.045 98.7411C31.8905 97.8626 31.1668 97.1977 30.2782 97.1195L-0.211914 94.4521" stroke="#898988" stroke-width="0.93576" stroke-miterlimit="10" stroke-linecap="round" stroke-linejoin="round"/>
<path d="M52.6677 103.725C52.494 102.517 53.3338 101.399 54.5402 101.225C55.75 101.052 56.8693 101.89 57.0415 103.098V103.091L59.0789 114.432C59.3101 115.71 58.2617 116.855 56.9702 116.743L34.877 114.809" stroke="#898988" stroke-width="0.93576" stroke-miterlimit="10" stroke-linecap="round" stroke-linejoin="round"/>
<path d="M106.847 114.845L63.6305 111.063C62.7439 110.985 62.0182 110.32 61.8637 109.444L59.0293 93.374L102.247 97.1551C103.136 97.2333 103.86 97.8982 104.014 98.7766L106.847 114.845Z" fill="#FEFEFE"/>
<path d="M106.847 114.845L63.6305 111.063C62.7439 110.985 62.0182 110.32 61.8637 109.444L59.0293 93.374L102.247 97.1551C103.136 97.2333 103.86 97.8982 104.014 98.7766L106.847 114.845Z" stroke="#898988" stroke-width="0.93576" stroke-miterlimit="10" stroke-linecap="round" stroke-linejoin="round"/>
<path d="M59.0316 93.3747L55.779 93.0898C53.3145 92.8728 51.1434 94.6956 50.9279 97.1612L50.4561 102.55" stroke="#898988" stroke-width="0.93576" stroke-miterlimit="10" stroke-linecap="round" stroke-linejoin="round"/>
<path d="M124.637 103.76C124.464 102.552 125.304 101.434 126.51 101.26C127.72 101.086 128.839 101.925 129.011 103.134V103.126L131.049 114.467C131.279 115.744 130.231 116.891 128.94 116.777L106.847 114.843" stroke="#898988" stroke-width="0.93576" stroke-miterlimit="10" stroke-linecap="round" stroke-linejoin="round"/>
<path d="M178.821 114.809L135.605 111.028C134.719 110.95 133.993 110.285 133.838 109.408L131.004 93.3389L174.222 97.1204C175.111 97.1986 175.834 97.8635 175.989 98.742L178.821 114.809Z" fill="#FEFEFE"/>
<path d="M178.821 114.809L135.605 111.028C134.719 110.95 133.993 110.285 133.838 109.408L131.004 93.3389L174.222 97.1204C175.111 97.1986 175.834 97.8635 175.989 98.742L178.821 114.809Z" stroke="#898988" stroke-width="0.93576" stroke-miterlimit="10" stroke-linecap="round" stroke-linejoin="round"/>
<path d="M131.005 93.3391L127.752 93.0546C125.288 92.8376 123.116 94.6605 122.901 97.1256L122.429 102.515" stroke="#898988" stroke-width="0.93576" stroke-miterlimit="10" stroke-linecap="round" stroke-linejoin="round"/>
<path d="M196.61 103.726C196.436 102.517 197.277 101.4 198.483 101.226C199.692 101.052 200.812 101.891 200.984 103.099V103.092L203.021 114.433C203.252 115.71 202.204 116.856 200.913 116.743L178.819 114.809" stroke="#898988" stroke-width="0.93576" stroke-miterlimit="10" stroke-linecap="round" stroke-linejoin="round"/>
<path d="M250.792 114.809L207.576 111.028C206.689 110.95 205.964 110.285 205.809 109.408L202.975 93.3389L246.193 97.1204C247.081 97.1986 247.805 97.8635 247.96 98.742L250.792 114.809Z" fill="#FEFEFE"/>
<path d="M250.792 114.809L207.576 111.028C206.689 110.95 205.964 110.285 205.809 109.408L202.975 93.3389L246.193 97.1204C247.081 97.1986 247.805 97.8635 247.96 98.742L250.792 114.809Z" stroke="#898988" stroke-width="0.93576" stroke-miterlimit="10" stroke-linecap="round" stroke-linejoin="round"/>
<path d="M202.976 93.3391L199.723 93.0546C197.259 92.8376 195.088 94.6605 194.872 97.1256L194.4 102.515" stroke="#898988" stroke-width="0.93576" stroke-miterlimit="10" stroke-linecap="round" stroke-linejoin="round"/>
<path d="M268.582 103.725C268.408 102.516 269.248 101.399 270.454 101.225C271.664 101.051 272.783 101.89 272.956 103.098V103.091L274.993 114.432C275.224 115.709 274.176 116.855 272.884 116.742L250.791 114.808" stroke="#898988" stroke-width="0.93576" stroke-miterlimit="10" stroke-linecap="round" stroke-linejoin="round"/>
<path d="M322.763 114.809L279.546 111.028C278.659 110.95 277.934 110.285 277.78 109.408L274.945 93.3389L318.163 97.1204C319.052 97.1986 319.776 97.8635 319.93 98.742L322.763 114.809Z" fill="#FEFEFE"/>
<path d="M322.763 114.809L279.546 111.028C278.659 110.95 277.934 110.285 277.78 109.408L274.945 93.3389L318.163 97.1204C319.052 97.1986 319.776 97.8635 319.93 98.742L322.763 114.809Z" stroke="#898988" stroke-width="0.93576" stroke-miterlimit="10" stroke-linecap="round" stroke-linejoin="round"/>
<path d="M274.948 93.3391L271.695 93.0546C269.231 92.8376 267.059 94.6605 266.844 97.1256L266.372 102.515" stroke="#898988" stroke-width="0.93576" stroke-miterlimit="10" stroke-linecap="round" stroke-linejoin="round"/>
<path d="M340.553 103.725C340.38 102.516 341.219 101.399 342.426 101.225C343.636 101.051 344.754 101.89 344.927 103.098V103.091L346.965 114.432C347.195 115.709 346.149 116.855 344.856 116.742L322.763 114.808" stroke="#898988" stroke-width="0.93576" stroke-miterlimit="10" stroke-linecap="round" stroke-linejoin="round"/>
<path d="M94.035 105.31C94.035 107.375 92.3617 109.048 90.2978 109.048C88.2358 109.048 86.5645 107.375 86.5645 105.31C86.5645 103.246 88.2358 101.573 90.2978 101.573C92.3617 101.573 94.035 103.246 94.035 105.31Z" fill="#FEFEFE"/>
<path d="M22.0642 105.31C22.0642 107.375 20.391 109.048 18.3275 109.048C16.2655 109.048 14.5938 107.375 14.5938 105.31C14.5938 103.246 16.2655 101.573 18.3275 101.573C20.391 101.573 22.0642 103.246 22.0642 105.31Z" fill="#FEFEFE"/>
<path d="M166.005 105.31C166.005 107.374 164.331 109.048 162.268 109.048C160.206 109.048 158.534 107.374 158.534 105.31C158.534 103.246 160.206 101.572 162.268 101.572C164.331 101.572 166.005 103.246 166.005 105.31Z" fill="#FEFEFE"/>
<path d="M237.977 105.31C237.977 107.374 236.304 109.048 234.24 109.048C232.178 109.048 230.507 107.374 230.507 105.31C230.507 103.246 232.178 101.572 234.24 101.572C236.304 101.572 237.977 103.246 237.977 105.31Z" fill="#FEFEFE"/>
<path d="M309.949 105.31C309.949 107.375 308.277 109.048 306.212 109.048C304.15 109.048 302.479 107.375 302.479 105.31C302.479 103.246 304.15 101.573 306.212 101.573C308.277 101.573 309.949 103.246 309.949 105.31Z" fill="#FEFEFE"/>
<path d="M361.211 111.888L351.387 111.028C350.501 110.95 349.775 110.285 349.621 109.408L346.788 93.3389L361.211 94.6007V111.888Z" fill="#FEFEFE"/>
<path d="M361.211 111.888L351.387 111.028C350.501 110.95 349.775 110.285 349.621 109.408L346.788 93.3389L361.211 94.6007" stroke="#898988" stroke-width="0.93576" stroke-miterlimit="10" stroke-linecap="round" stroke-linejoin="round"/>
<path d="M346.788 93.3391L343.535 93.0546C341.07 92.8376 338.899 94.6605 338.684 97.1256L338.212 102.515" stroke="#898988" stroke-width="0.93576" stroke-miterlimit="10" stroke-linecap="round" stroke-linejoin="round"/>
<path d="M26.873 70.1885C37.5735 110.161 60.3575 82.4504 73.6474 132.727" stroke="#00A9DD" stroke-width="1.40364" stroke-miterlimit="10" stroke-linecap="round" stroke-linejoin="round"/>
<path d="M16.8018 89.6765L26.8981 70.1887L46.3792 80.2857" stroke="#00A9DD" stroke-width="1.40364" stroke-miterlimit="10" stroke-linecap="round" stroke-linejoin="round"/>
<path d="M147.946 132.727C137.246 92.7546 114.462 120.465 101.172 70.1885" stroke="#00A9DD" stroke-width="1.40364" stroke-miterlimit="10" stroke-linecap="round" stroke-linejoin="round"/>
<path d="M158.017 113.238L147.921 132.726L128.439 122.629" stroke="#00A9DD" stroke-width="1.40364" stroke-miterlimit="10" stroke-linecap="round" stroke-linejoin="round"/>
<path d="M175.224 70.1885C185.924 110.161 208.708 82.4504 221.998 132.727" stroke="#00A9DD" stroke-width="1.40364" stroke-miterlimit="10" stroke-linecap="round" stroke-linejoin="round"/>
<path d="M165.152 89.6768L175.249 70.189L194.729 80.286" stroke="#00A9DD" stroke-width="1.40364" stroke-miterlimit="10" stroke-linecap="round" stroke-linejoin="round"/>
<path d="M311.899 70.1885C322.6 110.161 345.384 82.4504 358.674 132.727" stroke="#00A9DD" stroke-width="1.40364" stroke-miterlimit="10" stroke-linecap="round" stroke-linejoin="round"/>
<path d="M301.829 89.6765L311.925 70.1887L331.407 80.2857" stroke="#00A9DD" stroke-width="1.40364" stroke-miterlimit="10" stroke-linecap="round" stroke-linejoin="round"/>
<path d="M296.3 132.727C285.599 92.7546 262.815 120.465 249.525 70.1885" stroke="#00A9DD" stroke-width="1.40364" stroke-miterlimit="10" stroke-linecap="round" stroke-linejoin="round"/>
<path d="M306.37 113.238L296.274 132.726L276.793 122.629" stroke="#00A9DD" stroke-width="1.40364" stroke-miterlimit="10" stroke-linecap="round" stroke-linejoin="round"/>
<path d="M255.489 47.689H260.425" stroke="#2B2A29" stroke-width="1.4" stroke-miterlimit="10" stroke-linecap="round" stroke-linejoin="round"/>
<path d="M252.526 40.2811L255.942 36.8643" stroke="#2B2A29" stroke-width="1.4" stroke-miterlimit="10" stroke-linecap="round" stroke-linejoin="round"/>
<path d="M234.751 47.6885H229.814" stroke="#2B2A29" stroke-width="1.4" stroke-miterlimit="10" stroke-linecap="round" stroke-linejoin="round"/>
<path d="M237.714 40.2811L234.298 36.8643" stroke="#2B2A29" stroke-width="1.4" stroke-miterlimit="10" stroke-linecap="round" stroke-linejoin="round"/>
<path d="M245.121 37.3174V32.3799" stroke="#2B2A29" stroke-width="1.4" stroke-miterlimit="10" stroke-linecap="round" stroke-linejoin="round"/>
<path d="M255.944 58.516L252.528 55.0991" stroke="#2B2A29" stroke-width="1.4" stroke-miterlimit="10" stroke-linecap="round" stroke-linejoin="round"/>
<path d="M234.297 58.516L237.713 55.0991" stroke="#2B2A29" stroke-width="1.4" stroke-miterlimit="10" stroke-linecap="round" stroke-linejoin="round"/>
<path d="M245.121 63.0005V58.063" stroke="#2B2A29" stroke-width="1.4" stroke-miterlimit="10" stroke-linecap="round" stroke-linejoin="round"/>
<path d="M252.528 47.6897C252.528 51.7818 249.211 55.0997 245.12 55.0997C241.031 55.0997 237.716 51.7818 237.716 47.6897C237.716 43.5977 241.031 40.2803 245.12 40.2803C249.211 40.2803 252.528 43.5977 252.528 47.6897Z" stroke="#2B2A29" stroke-width="1.4" stroke-miterlimit="10" stroke-linecap="round" stroke-linejoin="round"/>
<path d="M334.349 47.8076V33.4395" stroke="#2B2A29" stroke-width="1.4" stroke-miterlimit="10" stroke-linecap="round" stroke-linejoin="round"/>
<path d="M334.349 39.5196L329.93 36.2036" stroke="#2B2A29" stroke-width="1.4" stroke-miterlimit="10" stroke-linecap="round" stroke-linejoin="round"/>
<path d="M334.349 39.5196L338.768 36.2036" stroke="#2B2A29" stroke-width="1.4" stroke-miterlimit="10" stroke-linecap="round" stroke-linejoin="round"/>
<path d="M334.348 47.8077L321.909 40.6235" stroke="#2B2A29" stroke-width="1.4" stroke-miterlimit="10" stroke-linecap="round" stroke-linejoin="round"/>
<path d="M327.173 43.6631L322.093 45.8334" stroke="#2B2A29" stroke-width="1.4" stroke-miterlimit="10" stroke-linecap="round" stroke-linejoin="round"/>
<path d="M327.173 43.663L326.512 38.1772" stroke="#2B2A29" stroke-width="1.4" stroke-miterlimit="10" stroke-linecap="round" stroke-linejoin="round"/>
<path d="M334.348 47.8071L321.909 54.9912" stroke="#2B2A29" stroke-width="1.4" stroke-miterlimit="10" stroke-linecap="round" stroke-linejoin="round"/>
<path d="M327.173 51.9526L326.512 57.4389" stroke="#2B2A29" stroke-width="1.4" stroke-miterlimit="10" stroke-linecap="round" stroke-linejoin="round"/>
<path d="M327.173 51.9521L322.093 49.7817" stroke="#2B2A29" stroke-width="1.4" stroke-miterlimit="10" stroke-linecap="round" stroke-linejoin="round"/>
<path d="M334.349 47.8071V62.1753" stroke="#2B2A29" stroke-width="1.4" stroke-miterlimit="10" stroke-linecap="round" stroke-linejoin="round"/>
<path d="M334.349 56.0967L338.768 59.4126" stroke="#2B2A29" stroke-width="1.4" stroke-miterlimit="10" stroke-linecap="round" stroke-linejoin="round"/>
<path d="M334.349 56.0967L329.93 59.4126" stroke="#2B2A29" stroke-width="1.4" stroke-miterlimit="10" stroke-linecap="round" stroke-linejoin="round"/>
<path d="M334.349 47.8071L346.788 54.9912" stroke="#2B2A29" stroke-width="1.4" stroke-miterlimit="10" stroke-linecap="round" stroke-linejoin="round"/>
<path d="M341.524 51.9521L346.605 49.7817" stroke="#2B2A29" stroke-width="1.4" stroke-miterlimit="10" stroke-linecap="round" stroke-linejoin="round"/>
<path d="M341.524 51.9526L342.186 57.4389" stroke="#2B2A29" stroke-width="1.4" stroke-miterlimit="10" stroke-linecap="round" stroke-linejoin="round"/>
<path d="M334.349 47.8077L346.788 40.6235" stroke="#2B2A29" stroke-width="1.4" stroke-miterlimit="10" stroke-linecap="round" stroke-linejoin="round"/>
<path d="M341.524 43.663L342.186 38.1772" stroke="#2B2A29" stroke-width="1.4" stroke-miterlimit="10" stroke-linecap="round" stroke-linejoin="round"/>
<path d="M341.524 43.6631L346.605 45.8334" stroke="#2B2A29" stroke-width="1.4" stroke-miterlimit="10" stroke-linecap="round" stroke-linejoin="round"/>
<path d="M283.308 53.0884L280.413 60.0368" stroke="#2B2A29" stroke-width="1.4" stroke-miterlimit="10" stroke-linecap="round" stroke-linejoin="round"/>
<path d="M287.375 53.0884L284.48 60.0368" stroke="#2B2A29" stroke-width="1.4" stroke-miterlimit="10" stroke-linecap="round" stroke-linejoin="round"/>
<path d="M291.411 53.0884L288.516 60.0368" stroke="#2B2A29" stroke-width="1.4" stroke-miterlimit="10" stroke-linecap="round" stroke-linejoin="round"/>
<path d="M295.447 53.0884L292.552 60.0368" stroke="#2B2A29" stroke-width="1.4" stroke-miterlimit="10" stroke-linecap="round" stroke-linejoin="round"/>
<path d="M299.513 53.0884L296.618 60.0368" stroke="#2B2A29" stroke-width="1.4" stroke-miterlimit="10" stroke-linecap="round" stroke-linejoin="round"/>
<path d="M299.514 50.1939C302.391 50.1939 304.723 47.8622 304.723 44.9837C304.723 42.1053 302.391 39.7736 299.514 39.7736C299.292 39.7736 299.072 39.7893 298.857 39.8169C298.313 35.867 294.93 32.8271 290.833 32.8271C286.737 32.8271 283.35 35.867 282.807 39.8169C282.592 39.7893 282.373 39.7736 282.153 39.7736C279.273 39.7736 276.942 42.1053 276.942 44.9837C276.942 47.8622 279.273 50.1939 282.153 50.1939H299.514Z" stroke="#2B2A29" stroke-width="1.4" stroke-miterlimit="10" stroke-linecap="round" stroke-linejoin="round"/>
</g>
<defs>
<clipPath id="clip0_2240_372">
<rect width="361" height="180" fill="white"/>
</clipPath>
</defs>
</svg>
