<svg width="361" height="180" viewBox="0 0 361 180" fill="none" xmlns="http://www.w3.org/2000/svg">
<g clip-path="url(#clip0_2252_1004)">
<path d="M336.457 48.5703H341.458" stroke="#F39314" stroke-width="1.4" stroke-miterlimit="10" stroke-linecap="round" stroke-linejoin="round"/>
<path d="M333.457 41.0285L336.918 37.5488" stroke="#F39314" stroke-width="1.4" stroke-miterlimit="10" stroke-linecap="round" stroke-linejoin="round"/>
<path d="M315.455 48.5703H310.454" stroke="#F39314" stroke-width="1.4" stroke-miterlimit="10" stroke-linecap="round" stroke-linejoin="round"/>
<path d="M318.455 41.0285L314.995 37.5488" stroke="#F39314" stroke-width="1.4" stroke-miterlimit="10" stroke-linecap="round" stroke-linejoin="round"/>
<path d="M325.957 38.0112V32.9832" stroke="#F39314" stroke-width="1.4" stroke-miterlimit="10" stroke-linecap="round" stroke-linejoin="round"/>
<path d="M336.918 59.5919L333.457 56.1123" stroke="#F39314" stroke-width="1.4" stroke-miterlimit="10" stroke-linecap="round" stroke-linejoin="round"/>
<path d="M314.995 59.5919L318.455 56.1123" stroke="#F39314" stroke-width="1.4" stroke-miterlimit="10" stroke-linecap="round" stroke-linejoin="round"/>
<path d="M325.957 64.1574V59.1294" stroke="#F39314" stroke-width="1.4" stroke-miterlimit="10" stroke-linecap="round" stroke-linejoin="round"/>
<path d="M333.458 48.5704C333.458 52.7356 330.099 56.1128 325.956 56.1128C321.813 56.1128 318.456 52.7356 318.456 48.5704C318.456 44.4053 321.813 41.0281 325.956 41.0281C330.099 41.0281 333.458 44.4053 333.458 48.5704Z" stroke="#F39314" stroke-width="1.4" stroke-miterlimit="10" stroke-linecap="round" stroke-linejoin="round"/>
<path d="M-1.75293 160.967L361.73 160.931V81.9668L-1.75293 82.0022V160.967Z" fill="#B3B3B3"/>
<path d="M-1.75293 146.967H361.73V81.9668H-1.75293V146.967Z" fill="#DADADA"/>
<path d="M-1.75293 147.957L361.73 147.967V138.977L-1.75293 138.967V147.957Z" fill="#C6C6C6"/>
<path d="M8.36158 124.206L1.5332 117.341V92.9873L16.1638 107.699C16.7886 108.329 16.9189 109.303 16.4742 110.075L8.36158 124.206Z" fill="#FEFEFE"/>
<path d="M1.5332 117.341L8.36158 124.206L16.4742 110.075C16.9189 109.303 16.7886 108.329 16.1638 107.699L1.5332 92.9873" stroke="#898988" stroke-width="0.93576" stroke-miterlimit="10" stroke-linecap="round" stroke-linejoin="round"/>
<path d="M29.0036 127.153C29.6443 126.117 30.9982 125.799 32.0308 126.441C33.0614 127.086 33.3778 128.449 32.7371 129.485L32.7421 129.48L27.0438 139.478C26.4042 140.603 24.8742 140.809 23.9609 139.893L8.36035 124.205" stroke="#898988" stroke-width="0.93576" stroke-miterlimit="10" stroke-linecap="round" stroke-linejoin="round"/>
<path d="M41.9065 124.207L11.3898 93.5231C10.7631 92.8931 10.6368 91.9191 11.0814 91.1461L19.1941 77.0161L49.7098 107.7C50.3345 108.331 50.4639 109.305 50.0202 110.077L41.9065 124.207Z" fill="#FEFEFE"/>
<path d="M101.595 124.207L71.0783 93.5231C70.4516 92.8931 70.3252 91.9191 70.7699 91.1461L78.8826 77.0161L109.398 107.7C110.023 108.331 110.152 109.305 109.709 110.077L101.595 124.207Z" fill="#FEFEFE"/>
<path d="M160.537 124.207L130.021 93.5231C129.394 92.8931 129.268 91.9191 129.712 91.1461L137.825 77.0161L168.341 107.7C168.965 108.331 169.095 109.305 168.651 110.077L160.537 124.207Z" fill="#FEFEFE"/>
<path d="M41.9065 124.207L11.3898 93.5231C10.7631 92.8931 10.6368 91.9191 11.0814 91.1461L19.1941 77.0161L49.7098 107.7C50.3345 108.331 50.4639 109.305 50.0202 110.077L41.9065 124.207Z" stroke="#898988" stroke-width="0.93576" stroke-miterlimit="10" stroke-linecap="round" stroke-linejoin="round"/>
<path d="M101.595 124.207L71.0783 93.5231C70.4516 92.8931 70.3252 91.9191 70.7699 91.1461L78.8826 77.0161L109.398 107.7C110.023 108.331 110.152 109.305 109.709 110.077L101.595 124.207Z" stroke="#898988" stroke-width="0.93576" stroke-miterlimit="10" stroke-linecap="round" stroke-linejoin="round"/>
<path d="M160.537 124.207L130.021 93.5231C129.394 92.8931 129.268 91.9191 129.712 91.1461L137.825 77.0161L168.341 107.7C168.965 108.331 169.095 109.305 168.651 110.077L160.537 124.207Z" stroke="#898988" stroke-width="0.93576" stroke-miterlimit="10" stroke-linecap="round" stroke-linejoin="round"/>
<path d="M19.1933 77.017L16.8953 74.706C15.1563 72.958 12.337 72.958 10.5981 74.706L6.79199 78.531" stroke="#898988" stroke-width="0.93576" stroke-miterlimit="10" stroke-linecap="round" stroke-linejoin="round"/>
<path d="M78.8817 77.017L76.5837 74.706C74.8448 72.958 72.0255 72.958 70.2866 74.706L66.4805 78.531" stroke="#898988" stroke-width="0.93576" stroke-miterlimit="10" stroke-linecap="round" stroke-linejoin="round"/>
<path d="M137.824 77.017L135.526 74.706C133.787 72.958 130.968 72.958 129.229 74.706L125.423 78.531" stroke="#898988" stroke-width="0.93576" stroke-miterlimit="10" stroke-linecap="round" stroke-linejoin="round"/>
<path d="M62.5515 127.154C63.1911 126.117 64.5451 125.799 65.5777 126.442C66.6083 127.086 66.9247 128.449 66.284 129.485L66.289 129.48L60.5917 139.479C59.951 140.604 58.421 140.81 57.5078 139.894L41.9072 124.206" stroke="#898988" stroke-width="0.93576" stroke-miterlimit="10" stroke-linecap="round" stroke-linejoin="round"/>
<path d="M122.24 127.154C122.88 126.117 124.234 125.799 125.266 126.442C126.297 127.086 126.613 128.449 125.972 129.485L125.977 129.48L120.28 139.479C119.64 140.604 118.11 140.81 117.196 139.894L101.596 124.206" stroke="#898988" stroke-width="0.93576" stroke-miterlimit="10" stroke-linecap="round" stroke-linejoin="round"/>
<path d="M181.182 127.154C181.822 126.117 183.176 125.799 184.209 126.442C185.239 127.086 185.556 128.449 184.915 129.485L184.92 129.48L179.223 139.479C178.582 140.604 177.052 140.81 176.139 139.894L160.538 124.206" stroke="#898988" stroke-width="0.93576" stroke-miterlimit="10" stroke-linecap="round" stroke-linejoin="round"/>
<path d="M71.7154 124.207L41.1977 93.5231C40.572 92.8931 40.4456 91.9191 40.8893 91.1461L49.003 77.0161L79.5177 107.7C80.1425 108.331 80.2728 109.305 79.8281 110.077L71.7154 124.207Z" fill="#FEFEFE"/>
<path d="M131.404 124.207L100.886 93.5231C100.26 92.8931 100.134 91.9191 100.578 91.1461L108.691 77.0161L139.206 107.7C139.831 108.331 139.961 109.305 139.517 110.077L131.404 124.207Z" fill="#FEFEFE"/>
<path d="M190.345 124.207L159.828 93.5231C159.202 92.8931 159.076 91.9191 159.519 91.1461L167.633 77.0161L198.148 107.7C198.772 108.331 198.903 109.305 198.458 110.077L190.345 124.207Z" fill="#FEFEFE"/>
<path d="M71.7154 124.207L41.1977 93.5231C40.572 92.8931 40.4456 91.9191 40.8893 91.1461L49.003 77.0161L79.5177 107.7C80.1425 108.331 80.2728 109.305 79.8281 110.077L71.7154 124.207Z" stroke="#898988" stroke-width="0.93576" stroke-miterlimit="10" stroke-linecap="round" stroke-linejoin="round"/>
<path d="M131.404 124.207L100.886 93.5231C100.26 92.8931 100.134 91.9191 100.578 91.1461L108.691 77.0161L139.206 107.7C139.831 108.331 139.961 109.305 139.517 110.077L131.404 124.207Z" stroke="#898988" stroke-width="0.93576" stroke-miterlimit="10" stroke-linecap="round" stroke-linejoin="round"/>
<path d="M190.345 124.207L159.828 93.5231C159.202 92.8931 159.076 91.9191 159.519 91.1461L167.633 77.0161L198.148 107.7C198.772 108.331 198.903 109.305 198.458 110.077L190.345 124.207Z" stroke="#898988" stroke-width="0.93576" stroke-miterlimit="10" stroke-linecap="round" stroke-linejoin="round"/>
<path d="M49.0019 77.017L46.7039 74.706C44.9649 72.958 42.1457 72.958 40.4067 74.706L36.6006 78.531" stroke="#898988" stroke-width="0.93576" stroke-miterlimit="10" stroke-linecap="round" stroke-linejoin="round"/>
<path d="M108.69 77.017L106.392 74.706C104.653 72.958 101.834 72.958 100.095 74.706L96.2891 78.531" stroke="#898988" stroke-width="0.93576" stroke-miterlimit="10" stroke-linecap="round" stroke-linejoin="round"/>
<path d="M167.633 77.017L165.335 74.706C163.596 72.958 160.777 72.958 159.038 74.706L155.231 78.531" stroke="#898988" stroke-width="0.93576" stroke-miterlimit="10" stroke-linecap="round" stroke-linejoin="round"/>
<path d="M92.3581 127.154C92.9988 126.117 94.3527 125.799 95.3853 126.442C96.416 127.086 96.7313 128.449 96.0916 129.485L96.0966 129.48L90.3984 139.479C89.7577 140.604 88.2277 140.81 87.3145 139.894L71.7139 124.206" stroke="#898988" stroke-width="0.93576" stroke-miterlimit="10" stroke-linecap="round" stroke-linejoin="round"/>
<path d="M152.047 127.154C152.687 126.117 154.041 125.799 155.074 126.442C156.104 127.086 156.42 128.449 155.78 129.485L155.785 129.48L150.087 139.479C149.446 140.604 147.916 140.81 147.003 139.894L131.402 124.206" stroke="#898988" stroke-width="0.93576" stroke-miterlimit="10" stroke-linecap="round" stroke-linejoin="round"/>
<path d="M210.989 127.154C211.63 126.117 212.984 125.799 214.016 126.442C215.047 127.086 215.362 128.449 214.722 129.485L214.727 129.48L209.029 139.479C208.389 140.604 206.859 140.81 205.945 139.894L190.345 124.206" stroke="#898988" stroke-width="0.93576" stroke-miterlimit="10" stroke-linecap="round" stroke-linejoin="round"/>
<path d="M39.0855 106.289C39.0855 108.353 37.4202 110.027 35.3669 110.027C33.3156 110.027 31.6533 108.353 31.6533 106.289C31.6533 104.224 33.3156 102.551 35.3669 102.551C37.4202 102.551 39.0855 104.224 39.0855 106.289Z" fill="#FEFEFE"/>
<path d="M98.774 106.289C98.774 108.353 97.1087 110.027 95.0554 110.027C93.0041 110.027 91.3418 108.353 91.3418 106.289C91.3418 104.224 93.0041 102.551 95.0554 102.551C97.1087 102.551 98.774 104.224 98.774 106.289Z" fill="#FEFEFE"/>
<path d="M157.716 106.289C157.716 108.353 156.051 110.027 153.998 110.027C151.947 110.027 150.284 108.353 150.284 106.289C150.284 104.224 151.947 102.551 153.998 102.551C156.051 102.551 157.716 104.224 157.716 106.289Z" fill="#FEFEFE"/>
<path d="M5.5393 106.289C5.5393 108.353 3.87399 110.027 1.82171 110.027C1.72521 110.027 1.6287 110.023 1.5332 110.016V102.562C1.6287 102.555 1.72521 102.551 1.82171 102.551C3.87399 102.551 5.5393 104.224 5.5393 106.289Z" fill="#FEFEFE"/>
<path d="M68.8922 106.289C68.8922 108.353 67.2298 110.027 65.1755 110.027C63.1242 110.027 61.4609 108.353 61.4609 106.289C61.4609 104.224 63.1242 102.551 65.1755 102.551C67.2298 102.551 68.8922 104.224 68.8922 106.289Z" fill="#FEFEFE"/>
<path d="M128.581 106.289C128.581 108.353 126.918 110.027 124.864 110.027C122.813 110.027 121.149 108.353 121.149 106.289C121.149 104.224 122.813 102.551 124.864 102.551C126.918 102.551 128.581 104.224 128.581 106.289Z" fill="#FEFEFE"/>
<path d="M187.523 106.289C187.523 108.353 185.861 110.027 183.806 110.027C181.755 110.027 180.092 108.353 180.092 106.289C180.092 104.224 181.755 102.551 183.806 102.551C185.861 102.551 187.523 104.224 187.523 106.289Z" fill="#FEFEFE"/>
<path d="M358.986 106.244L276.053 106.335" stroke="#F39314" stroke-width="1.40364" stroke-linecap="round" stroke-linejoin="round" stroke-dasharray="4.78 4.78"/>
<path d="M247.193 131.684L272.588 106.289" stroke="#F39314" stroke-width="1.40364" stroke-miterlimit="10" stroke-linecap="round" stroke-linejoin="round"/>
<path d="M262.22 131.645L247.196 131.685L247.234 116.659" stroke="#F39314" stroke-width="1.40364" stroke-miterlimit="10" stroke-linecap="round" stroke-linejoin="round"/>
</g>
<defs>
<clipPath id="clip0_2252_1004">
<rect width="361" height="180" fill="white"/>
</clipPath>
</defs>
</svg>
