<svg viewBox="0 0 1815 242" fill="none" xmlns="http://www.w3.org/2000/svg">
<path d="M489.277 158.737c-8.741 0-16.138-.404-22.055-1.479-5.917-.942-10.759-2.69-14.524-5.111-3.766-2.42-6.455-5.648-8.069-9.682-1.614-4.035-2.421-9.28-2.421-15.466V62.418a2.66 2.66 0 012.66-2.66h24.535a2.66 2.66 0 012.66 2.66v55.302c0 3.631.269 6.589 1.076 8.741.807 2.152 2.152 3.9 4.035 4.976 1.882 1.21 4.303 2.017 7.396 2.421 3.093.403 6.993.538 11.566.538h16.944c3.766 0 6.994-.135 9.683-.673 2.69-.403 4.842-1.21 6.59-2.421 1.614-1.21 2.824-2.958 3.631-5.11.807-2.152 1.21-4.976 1.21-8.472V62.418a2.66 2.66 0 012.661-2.66h24.534a2.66 2.66 0 012.66 2.66v64.581c0 6.186-.807 11.162-2.42 15.197-1.614 4.034-4.169 7.396-7.531 9.817-3.362 2.42-7.666 4.169-12.776 5.245-5.245 1.075-11.431 1.479-18.693 1.479h-33.352zM583.658 62.418a2.66 2.66 0 012.66-2.66h24.534a2.66 2.66 0 012.661 2.66v30.586a2.66 2.66 0 002.66 2.66h55.869a2.66 2.66 0 002.66-2.66V62.418a2.66 2.66 0 012.661-2.66h24.669a2.66 2.66 0 012.66 2.66v92.448a2.661 2.661 0 01-2.66 2.661h-24.669a2.661 2.661 0 01-2.661-2.661v-32.872a2.661 2.661 0 00-2.66-2.661h-55.869a2.661 2.661 0 00-2.66 2.661v32.872a2.661 2.661 0 01-2.661 2.661h-24.534a2.661 2.661 0 01-2.66-2.661V62.418zM767.654 61.143a2.66 2.66 0 012.335-1.385h34.888c.98 0 1.881.539 2.345 1.402l49.594 92.449c.95 1.772-.334 3.918-2.345 3.918h-26.833c-.95 0-1.827-.507-2.303-1.329l-7.877-13.616a2.66 2.66 0 00-2.303-1.328h-56.517c-.944 0-1.817.5-2.295 1.314l-8.006 13.645a2.661 2.661 0 01-2.295 1.314h-26.537c-2.02 0-3.303-2.163-2.335-3.936l50.484-92.448zm21.673 26.312c-1.016-1.85-3.678-1.839-4.676.02l-14.136 26.326c-.952 1.772.332 3.919 2.344 3.919h28.578c2.022 0 3.305-2.167 2.333-3.94l-14.443-26.325zM869.039 62.418a2.66 2.66 0 012.661-2.66h83.139c14.524 0 25.283 2.555 32.276 7.665 6.993 5.11 10.49 13.583 10.49 25.148v33.621c0 10.893-2.824 18.828-8.204 23.804-5.379 5.11-13.986 7.531-25.82 7.531H871.7a2.661 2.661 0 01-2.661-2.661V62.418zm32.516 21.412a2.66 2.66 0 00-2.661 2.66v44.573a2.66 2.66 0 002.661 2.66h47.905c6.321 0 10.893-1.21 13.852-3.765 2.958-2.556 4.438-6.59 4.438-12.238v-17.214c0-5.783-1.883-9.952-5.38-12.641-3.631-2.69-9.145-4.035-16.676-4.035h-44.139zM1055.53 61.143a2.664 2.664 0 012.34-1.385h34.88c.98 0 1.88.539 2.35 1.402l49.59 92.449c.95 1.772-.33 3.918-2.34 3.918h-26.84c-.94 0-1.82-.507-2.3-1.329l-7.87-13.616a2.677 2.677 0 00-2.31-1.328h-56.52c-.94 0-1.81.5-2.29 1.314l-8.01 13.645a2.648 2.648 0 01-2.29 1.314h-26.54c-2.02 0-3.3-2.163-2.33-3.936l50.48-92.448zm21.67 26.312c-1.01-1.85-3.67-1.839-4.67.02l-14.14 26.326c-.95 1.772.33 3.919 2.35 3.919h28.57c2.03 0 3.31-2.167 2.34-3.94l-14.45-26.325zM1157.32 62.418a2.66 2.66 0 012.66-2.66h75.88c7.26 0 13.58.538 18.69 1.479 5.11.941 9.15 2.555 12.37 4.976 3.23 2.42 5.52 5.783 6.86 9.817 1.35 4.169 2.15 9.414 2.15 15.734 0 8.07-1.21 14.256-3.63 18.559a15.934 15.934 0 01-2.5 3.345c-1.97 2.022-1.93 8.414.13 10.348 3.45 3.235 5.2 7.726 5.2 13.473v17.377a2.66 2.66 0 01-2.66 2.661h-24.54a2.66 2.66 0 01-2.66-2.661v-12.267c0-2.017-.27-3.631-.81-4.976-.53-1.345-1.21-2.286-2.28-3.093-1.08-.807-2.56-1.345-4.17-1.614-1.75-.269-3.77-.403-6.19-.403h-41.85a2.66 2.66 0 00-2.66 2.66v19.693a2.66 2.66 0 01-2.66 2.661h-24.67a2.66 2.66 0 01-2.66-2.661V62.418zm32.65 21.681a2.66 2.66 0 00-2.66 2.66v18.618a2.66 2.66 0 002.66 2.66h44.81c4.17 0 6.99-.941 8.47-2.959 1.48-1.882 2.29-5.245 2.29-9.951 0-3.766-.94-6.456-2.55-8.338-1.62-1.749-4.44-2.69-8.21-2.69h-44.81zM1368.5 134.261c4.71 0 8.75-.134 12.11-.672 3.22-.404 5.91-1.345 8.07-2.69 2.15-1.345 3.63-3.228 4.57-5.648.94-2.421 1.48-5.649 1.48-9.683v-13.852c0-3.9-.54-7.127-1.48-9.548-.94-2.42-2.42-4.438-4.57-5.783-2.16-1.345-4.85-2.151-8.07-2.69-3.36-.403-7.4-.672-12.11-.672h-19.09c-4.84 0-9.01.27-12.24.673-3.36.538-6.05 1.479-8.2 2.824-2.16 1.345-3.64 3.362-4.44 5.782-.94 2.556-1.35 5.918-1.35 9.952v13.583c0 3.9.41 6.993 1.48 9.414.94 2.42 2.42 4.303 4.57 5.648 2.16 1.345 4.85 2.286 8.21 2.69 3.23.538 7.26.672 12.1.672h18.96zm-27.03 24.476c-4.44 0-8.47 0-12.24-.135-3.76-.134-7.12-.403-10.22-.941-3.22-.403-6.05-1.076-8.6-2.017-2.69-.942-4.98-2.152-7-3.766-4.03-2.958-6.85-6.724-8.33-11.431-1.62-4.572-2.29-10.489-2.29-17.617V96.203c0-7.532.67-13.852 2.29-18.828 1.48-4.841 4.3-8.876 8.33-11.97 4.04-2.958 9.01-4.84 15.2-5.647 6.19-.807 13.72-1.21 22.73-1.21h35.1c8.87 0 16.54.403 22.73 1.21 6.18.806 11.29 2.69 15.33 5.648 3.76 2.959 6.45 6.724 8.07 11.565 1.61 4.842 2.42 10.76 2.42 18.021v27.3c0 7.262-.81 13.314-2.42 18.155-1.62 4.842-4.31 8.607-8.07 11.431-4.04 3.093-9.28 4.976-15.47 5.783-6.18.807-13.72 1.076-22.59 1.076h-34.97zM1586.28 62.418a2.66 2.66 0 012.66-2.66h24.54c1.46 0 2.66 1.19 2.66 2.66v68.779a2.66 2.66 0 002.66 2.661h59.76c1.47 0 2.67 1.191 2.67 2.66v18.348c0 1.469-1.2 2.661-2.67 2.661h-89.62a2.66 2.66 0 01-2.66-2.661V62.418zM1739.81 158.737c-8.74 0-16.14-.404-22.06-1.479-5.91-.942-10.76-2.69-14.52-5.111-3.77-2.42-6.46-5.648-8.07-9.682-1.61-4.035-2.42-9.28-2.42-15.466V62.418a2.66 2.66 0 012.66-2.66h24.53a2.66 2.66 0 012.66 2.66v55.302c0 3.631.27 6.589 1.08 8.741.81 2.152 2.15 3.9 4.03 4.976 1.89 1.21 4.31 2.017 7.4 2.421 3.09.403 6.99.538 11.57.538h16.94c3.77 0 6.99-.135 9.68-.673 2.69-.403 4.85-1.21 6.59-2.421 1.62-1.21 2.83-2.958 3.64-5.11.8-2.152 1.21-4.976 1.21-8.472V62.418a2.66 2.66 0 012.66-2.66h24.53a2.66 2.66 0 012.66 2.66v64.581c0 6.186-.81 11.162-2.42 15.197-1.61 4.034-4.17 7.396-7.53 9.817-3.36 2.42-7.67 4.169-12.78 5.245-5.24 1.075-11.43 1.479-18.69 1.479h-33.35zM346.617 158.737h33.352c8.607 0 15.734-.404 21.652-1.21 5.917-.807 10.758-2.556 14.524-5.38 3.496-2.555 5.917-5.917 7.531-9.951 1.479-4.035 2.286-9.145 2.286-15.331 0-1.076-.135-2.287-.135-3.497 0-2.007-1.761-3.631-3.768-3.631H396.51c-.594 0-1.076.482-1.076 1.076 0 2.958-.538 5.379-1.344 7.127-.807 1.749-2.152 3.093-4.035 4.035-1.883.941-4.303 1.614-7.262 1.883-2.959.269-6.455.403-10.49.403h-17.348c-4.438 0-8.203-.134-11.162-.672-3.093-.538-5.648-1.48-7.531-2.824-1.883-1.345-3.362-3.094-4.169-5.514-.807-2.421-1.21-5.514-1.21-9.414v-13.583c0-4.034.269-7.396.941-9.952.673-2.555 1.883-4.572 3.766-5.917 1.882-1.345 4.303-2.151 7.396-2.69 3.093-.403 7.128-.672 11.969-.672h23.938c5.379 0 9.279.942 11.834 2.555 2.556 1.749 3.9 4.573 3.9 8.473 0 .52.422.941.942.941h26.22c1.562 0 2.963-1.262 2.963-2.824v-2.69c0-5.917-.807-10.893-2.152-14.927-1.479-4.035-3.766-7.262-6.859-9.683-3.631-2.69-8.338-4.438-14.12-5.245-5.918-.672-13.045-1.076-21.652-1.076h-33.352c-8.338 0-15.465.673-21.248 1.749-5.917 1.21-10.624 3.227-14.39 6.051-3.765 2.959-6.455 6.725-8.069 11.566-1.613 4.841-2.42 11.027-2.42 18.29v26.627c0 6.724.807 12.372 2.555 16.945 1.614 4.572 4.572 8.472 8.741 11.7 2.152 1.614 4.438 2.958 6.859 3.9 2.42 1.076 4.976 1.748 7.934 2.286 2.824.538 5.917.807 9.28.941 3.227.135 6.858.135 10.758.135zM1487.33 158.737c-3.9 0-7.53 0-10.75-.135-3.37-.134-6.46-.403-9.42-.941-2.96-.538-5.51-1.21-7.93-2.286-2.42-.942-4.71-2.286-6.86-3.9-4.17-3.228-7.13-7.128-8.74-11.7-1.75-4.573-2.56-10.221-2.56-16.945V96.203c0-7.263.81-13.449 2.42-18.29 1.62-4.841 4.31-8.607 8.07-11.566 3.77-2.824 8.47-4.841 14.39-6.051 5.78-1.076 12.91-1.749 21.25-1.749h33.35c8.61 0 15.74.404 21.65 1.076 5.92.807 10.63 2.555 14.26 5.245 3.09 2.42 5.38 5.648 6.86 9.683 1.34 4.034 2.15 9.01 2.15 14.927v2.858c-.03 1.469-1.33 2.656-2.8 2.656h-27.06c-.15 0-.27-.12-.27-.269 0-2.69-.53-4.707-1.34-6.32-.94-1.614-2.29-2.69-4.04-3.497-1.88-.807-4.16-1.21-6.99-1.48-2.96-.268-6.32-.403-10.08-.403h-17.35c-4.84 0-8.88.27-11.97.673-3.09.538-5.52 1.344-7.26 2.69-1.89 1.344-3.1 3.361-3.77 5.916-.67 2.556-.94 5.918-.94 9.952v13.583c0 3.9.4 6.993 1.21 9.414.81 2.42 2.29 4.169 4.17 5.514 1.88 1.344 4.44 2.286 7.53 2.824 2.96.538 6.72.672 11.16.672h17.22c3.76 0 7.12-.134 10.08-.403 2.83-.269 5.11-.807 6.99-1.614 1.89-.807 3.23-1.883 4.17-3.228.81-1.345 1.35-2.958 1.35-5.11 0-.404-.14-.807-.14-1.345 0-.895-.86-1.614-1.75-1.614h-30.82a2.66 2.66 0 01-2.66-2.66v-14.448a2.66 2.66 0 012.66-2.661h60.84a2.66 2.66 0 012.66 2.661v29.481c0 4.976-.94 9.144-2.82 12.372-1.88 3.228-4.57 5.917-8.34 7.8-3.76 1.883-8.6 3.228-14.25 4.035-5.78.806-12.51 1.21-20.31 1.21h-33.22zM1482.28 40.242c0-.882.71-1.597 1.59-1.597h39.6c.88 0 1.6.715 1.6 1.597v5.815a1.6 1.6 0 01-1.6 1.596h-39.6c-.88 0-1.59-.714-1.59-1.596v-5.815zM341.83 171.227c0-.882.714-1.596 1.596-1.596h39.6c.881 0 1.596.714 1.596 1.596v5.816c0 .881-.715 1.596-1.596 1.596h-39.6a1.596 1.596 0 01-1.596-1.596v-5.816zM.27 2.154C.281.961 1.287.024 2.48.034 4.612.055 6.979 0 8.89 0l216.143.06c1.175 0 2.128.954 2.128 2.129l.007 92.105c0 1.184-.967 2.141-2.151 2.154-1.761.019-3.509.07-5.281.074h-16.993a2.161 2.161 0 01-2.103-1.71 91.835 91.835 0 00-2.964-10.509 88.93 88.93 0 00-45.759-50.854 89.453 89.453 0 00-67.863-3.578A89.032 89.032 0 0033.21 75.549a88.285 88.285 0 00-3.305 67.718 88.905 88.905 0 0045.457 49.997c7.133 3.623 17.156 6.482 25.017 7.635a89.223 89.223 0 0066.522-16.641 88.78 88.78 0 0031.434-43.757c.991-3.052 2.019-6.853 2.647-10.234.192-1.032 1.075-1.805 2.124-1.81 7.423-.038 15.049.059 22.5.083a2.125 2.125 0 012.122 2.1c.119 10.736-.004 21.73-.004 32.45l-.004 61.83a2.128 2.128 0 01-2.13 2.128l-47.732-.041a2.128 2.128 0 00-2.13 2.131l.015 10.288a2.123 2.123 0 01-2.104 2.128c-9.164.076-18.473-.012-27.624-.012l-81.265-.001c-3.494 0-7.219-.059-10.78-.001a2.157 2.157 0 01-2.198-2.146l-.001-10.262a2.129 2.129 0 00-2.129-2.128l-47.513.007A2.128 2.128 0 010 224.88L.261 11.495C.284 8.41.237 5.258.27 2.155z" 
fill="#fff"/></svg>