<svg viewBox="0 0 430 119" fill="none" xmlns="http://www.w3.org/2000/svg">
<path fill-rule="evenodd" clip-rule="evenodd" d="M1.62682 61.6971C1.62682 64.8326 1.55733 66.4517 2.82806 69.3926C3.63402 71.2582 4.69206 72.8027 6.17209 74.0541C11.7626 78.7802 16.0835 79.0813 22.936 81.2835C24.7711 81.8731 25.945 82.2981 27.5237 83.1501C30.4652 84.7376 30.5313 85.6626 30.5313 88.4165C30.5313 90.1475 29.0996 91.3658 27.8289 92.068C24.4396 93.9406 14.8072 94.9052 13.5026 86.0871C13.354 85.0835 13.5697 84.287 12.6919 84.287H0.72365C-0.168363 84.287 -0.0368269 85.1919 0.0931878 86.1514C0.172989 86.7401 0.333265 88.1636 0.433523 88.7286C3.94274 108.509 28.4727 107.157 37.1724 100.661C45.1452 94.7083 45.859 81.6907 40.3058 75.4734C36.2471 70.929 28.3138 68.9205 22.8983 67.4787C20.5048 66.8414 14.95 65.3965 14.95 62.4258C14.95 60.0087 15.2905 58.7862 17.8164 57.7363C19.4114 57.0734 21.409 57.1465 23.2754 57.3567C25.6562 57.6253 28.0472 59.067 28.7659 61.6529C29.6515 64.8393 25.8178 64.1262 41.5964 64.1262C43.6368 64.1262 41.6281 54.4811 36.1472 50.0697C31.197 46.0856 24.3843 44.8151 18.2345 45.7977C16.7356 46.0372 15.6507 46.208 14.4685 46.6048C11.9232 47.4594 10.222 48.1243 8.2175 49.597C4.60769 52.2495 1.62699 56.562 1.62682 61.6971Z" fill="white"/>
<path fill-rule="evenodd" clip-rule="evenodd" d="M135.535 91.3312C133.075 91.3312 131.11 90.6885 129.811 88.2588C126.7 82.443 128.464 71.6562 134.406 71.6562C137.127 71.6562 138.996 71.8181 140.722 74.8213C142.68 78.2254 142.885 84.7074 140.643 88.3243C139.614 89.9851 137.98 91.3312 135.535 91.3312ZM116.115 81.1294C116.115 89.7084 119.002 96.9264 124.241 99.8366C129.617 102.823 136.005 103.068 140.565 97.9556L142.084 95.9465C142.084 98.7896 142.167 102.402 141.594 104.649C140.363 109.477 137.767 109.063 134.406 109.063C129.092 109.063 130.398 104.691 128.987 104.691H117.47C117.51 106.62 118.409 109.207 119.046 110.525C122.658 117.993 130.825 118.051 137.342 118.051C139.934 118.051 142.731 117.29 144.668 116.458C146.993 115.459 148.385 114.196 149.934 112.406C152.838 109.052 153.826 103.58 153.826 97.161L153.827 62.9117C153.827 62.3519 153.669 62.183 153.149 62.183H142.084V67.0411C141.55 66.6199 141.052 65.4894 139.918 64.27C139.778 64.1191 139.612 63.9663 139.447 63.805C132.16 56.6591 116.115 62.7307 116.115 81.1294Z" fill="white"/>
<path fill-rule="evenodd" clip-rule="evenodd" d="M210.055 47.1228V102.99C210.055 103.55 210.212 103.719 210.732 103.719H223.378V81.6148L244.379 81.615V69.9556H223.378V58.5392H247.54V46.394H210.732C210.212 46.394 210.055 46.563 210.055 47.1228Z" fill="white"/>
<path fill-rule="evenodd" clip-rule="evenodd" d="M364.061 96.1894C362.143 96.1894 360.877 96.4236 359.4 95.1307C358.241 94.1154 358.19 92.8062 358.19 91.3314C358.19 85.9116 366.459 86.4397 370.159 84.5301C370.159 87.8992 370.225 90.1979 369.259 92.5499C368.43 94.5682 366.747 96.1894 364.061 96.1894ZM348.254 74.0852V75.0569H359.545C360.103 67.8417 371.062 69.1015 371.062 73.8424C371.062 75.6152 370.894 76.9921 368.764 77.6856C362.015 79.8823 346.674 77.7816 346.674 92.303C346.674 94.2551 347.093 96.1656 347.605 97.617C348.26 99.4776 348.888 100.141 350.115 101.475C354.46 106.194 363.632 105.701 368.807 102.023C370.419 100.878 370.401 100.331 371.288 100.076C371.288 101.626 371.504 102.685 371.965 103.719H383.933C383.836 102.462 382.556 99.7644 382.578 93.5183L382.584 74.0796C382.654 57.9333 360.87 59.4247 353.764 63.9798C350.84 65.8541 348.254 70.2899 348.254 74.0852Z" fill="white"/>
<path fill-rule="evenodd" clip-rule="evenodd" d="M266.509 70.4418C269.117 70.4418 270.097 70.783 271.986 73.0526C273.007 74.2802 273.801 76.3929 273.961 78.4578H259.283L260.147 75.5009C261.19 72.7773 263.359 70.4418 266.509 70.4418ZM267.187 104.934C271.866 104.934 276.478 103.284 279.224 101.122C284.452 97.0078 284.355 93.6057 285.478 91.0887H273.961C272.789 96.4998 260.247 98.9326 259.283 86.4734L283.22 86.4737C286.155 86.4841 286.155 86.9528 286.155 84.5304C286.155 59.7783 264.419 56.2451 254.257 66.0069C253.667 66.5736 253.318 66.7222 252.784 67.337L250.611 70.3438C249.044 72.8824 248.285 74.9642 247.634 78.0728C247.419 79.1025 247.037 81.9865 247.079 83.0644L247.567 87.9028C248.256 92.0693 249.887 95.9379 252.564 98.8013C256.42 102.925 261.389 104.934 267.187 104.934Z" fill="white"/>
<path fill-rule="evenodd" clip-rule="evenodd" d="M176.408 70.4418C178.948 70.4418 180.242 70.6378 182.003 72.6823C183.247 74.125 184.086 76.1895 184.086 78.4575H169.634C169.766 76.7464 170.856 74.1554 171.716 73.1672C172.768 71.9592 174.335 70.4418 176.408 70.4418ZM157.44 82.344C157.44 86.5268 157.875 88.9974 158.989 92.337C159.877 94.9991 161.314 97.0726 162.965 98.9908C168.984 105.985 182.233 106.805 189.413 101.19C192.128 99.0664 195.532 94.5235 195.603 91.0885H184.764C183.696 91.0885 184.262 92.5043 182.242 93.9633C178.885 96.3892 173.818 95.8556 171.657 92.7983C170.551 91.2325 169.634 89.2245 169.634 86.4733H196.28C196.28 80.5797 196.062 75.5916 193.165 70.3927C183.419 52.9058 157.44 61.275 157.44 82.344Z" fill="white"/>
<path fill-rule="evenodd" clip-rule="evenodd" d="M65.5327 70.4414C67.7609 70.4414 69.7556 71.0381 71.0916 72.9636C71.9345 74.1786 72.9846 76.4567 72.9846 78.4573H58.5324C58.579 76.209 59.6523 74.3587 60.6544 72.9667C61.5809 71.6793 63.4942 70.4414 65.5327 70.4414ZM46.3384 81.372C46.3384 88.8537 47.33 94.2607 51.9229 99.1693C58.3822 106.072 70.7544 106.801 78.2731 101.149C81.3394 98.8441 83.5356 95.5462 84.5012 91.0882H73.2105C69.5689 98.491 58.5324 96.4841 58.5324 86.4729L84.5013 86.4731C85.4442 86.4731 85.1788 85.6302 85.1788 83.5582C85.1788 77.1375 82.9141 71.1161 80.1452 67.5972C72.0632 57.3258 54.9129 58.8734 48.3696 72.8692C47.4037 74.9354 46.3384 78.2967 46.3384 81.372Z" fill="white"/>
<path fill-rule="evenodd" clip-rule="evenodd" d="M301.511 68.7414C301.511 66.4941 301.965 62.183 300.833 62.183H290.22C289.7 62.183 289.542 62.352 289.542 62.9118V102.991C289.542 103.55 289.7 103.719 290.22 103.719H301.737V83.5584C301.737 78.1005 304.887 73.5995 309.64 73.5995C311.409 73.5995 313.784 73.5531 315.286 74.3282V61.6973C311.583 61.3657 309.192 60.9202 305.39 63.6834C303.965 64.7186 303.239 65.7114 302.368 67.2348C302.191 67.5442 302.112 67.7351 301.963 68.0134L301.511 68.7414Z" fill="white"/>
<path fill-rule="evenodd" clip-rule="evenodd" d="M100.535 68.9841V62.1828H89.2439C88.7236 62.1828 88.5664 62.3517 88.5664 62.9115V102.99C88.5664 103.55 88.7235 103.719 89.2439 103.719H100.761V84.044C100.761 80.8917 101.43 78.5013 102.754 76.7145C104.969 73.724 107.577 73.5992 110.696 73.5992C111.803 73.5992 113.595 73.959 114.309 74.328V61.6971C110.546 61.3601 108.13 60.9178 104.278 63.7801C102.961 64.7584 102.106 65.9279 101.302 67.3808L100.616 68.8288C100.6 68.8621 100.566 68.9352 100.535 68.9841Z" fill="white"/>
<path fill-rule="evenodd" clip-rule="evenodd" d="M399.74 68.9843V62.183H387.998L387.998 103.719H399.515C400.592 103.719 400.192 101.75 400.192 99.5899V85.0158C400.192 81.0603 400.231 79.467 401.831 77.0624C404.181 73.5294 408.961 72.9338 412.31 73.9524C413.141 74.2048 413.741 74.5533 413.741 73.5994V62.4259C413.741 60.617 404.102 60.4315 400.571 67.4483L399.74 68.9843Z" fill="white"/>
<path fill-rule="evenodd" clip-rule="evenodd" d="M331.544 68.9843V62.183H319.802V103.719H331.77V84.7729C331.77 78.8543 334.234 73.5994 339.674 73.5994C341.485 73.5994 343.701 73.493 345.319 74.3281V61.6972C341.698 61.373 338.928 60.9023 335.316 63.8112C334.045 64.8347 333.117 65.9146 332.347 67.4192L331.818 68.55C331.546 69.0572 331.761 68.7157 331.544 68.9843Z" fill="white"/>
<path fill-rule="evenodd" clip-rule="evenodd" d="M417.806 103.719H430V62.1831H417.806V103.719Z" fill="white"/>
<path fill-rule="evenodd" clip-rule="evenodd" d="M383.839 4.61514C381.148 5.45771 373.871 10.4707 371.227 12.528C366.399 16.2853 364.823 18.0546 359.637 21.717C359.003 22.1649 358.47 22.5121 357.809 22.9078C357.083 23.3421 356.593 23.682 355.935 24.0504C351.32 26.6343 344.935 29.4987 338.32 29.8782C326.92 30.5324 321.816 24.7392 320.253 24.2903C320.805 25.1762 323.684 27.9861 324.715 28.9642C325.093 29.3225 325.137 29.3034 325.479 29.6L329.642 33.1377C330.277 33.6302 330.751 33.9834 331.35 34.4579C339.479 40.8973 353.67 46.4619 364.518 46.389C365.734 46.3808 366.37 46.6518 367.21 46.6258C368.085 46.5985 368.867 46.3801 370.159 46.3945C374.938 46.447 382.86 44.6428 387.519 42.9638L389.206 42.3547C389.808 42.0587 389.465 42.2749 389.705 42.0221C392.045 41.8455 399.804 37.5055 402.688 35.7193C403.487 35.2244 406.09 33.7092 406.476 33.0348C407.305 32.843 407.649 32.4967 408.259 31.9956C408.85 31.5103 409.252 31.2451 409.86 30.803C412.273 29.0482 413.972 27.3967 416.096 25.6084L421.927 19.9789C423.823 17.9386 428.53 12.8057 430 10.4447C425.946 8.13745 425.251 6.4936 418.195 3.46795C413.774 1.57203 407.841 0 402.874 0C395.196 0 389.236 2.15272 383.839 4.61514Z" fill="url(#paint0_linear_2009_4838)"/>
<path fill-rule="evenodd" clip-rule="evenodd" d="M417.806 56.3535C417.806 56.9131 417.963 57.0822 418.483 57.0822H429.322C429.843 57.0822 430 56.9131 430 56.3535V46.3945H417.806L417.806 56.3535Z" fill="#DB061F"/>
<defs>
<linearGradient id="paint0_linear_2009_4838" x1="415.349" y1="10.5255" x2="352.796" y2="26.3034" gradientUnits="userSpaceOnUse">
<stop stop-color="#DB061F"/>
<stop offset="1" stop-color="#80090D"/>
</linearGradient>
</defs>
</svg>
