<svg viewBox="0 0 1815 242" fill="none" xmlns="http://www.w3.org/2000/svg">
<path fill-rule="evenodd" clip-rule="evenodd" d="M118.194 0.00153436C157.086 0.00153436 193.273 3.71361 223.473 10.0938L217.962 49.0199C195.073 45.139 169.417 42.652 142.271 42.652C98.9302 42.652 88.9884 46.757 88.9884 60.7487C88.9884 70.1747 96.6981 74.8662 109.535 76.0053L169.149 81.2771C203.924 84.3537 232.233 100.363 232.233 136.507C232.233 171.073 204.698 188.276 187.593 192.332C173.193 195.737 149.211 198.544 112.492 198.544C73.5966 198.544 33.3779 194.825 3.17169 188.445L8.6922 149.513C31.5756 153.394 62.5065 156.013 89.6516 156.013C130.156 156.013 146.355 153.891 146.355 136.313C146.355 125.988 137.258 121.929 124.881 120.823L60.2221 115.091C25.7573 112.027 0 92.5024 0 61.2031C0 16.4618 37.6273 0.00153436 118.194 0.00153436ZM765.733 0C804.631 0 844.847 3.72435 875.053 10.1291L869.532 49.175C846.646 45.2817 820.087 42.6566 792.933 42.6566C792.933 42.6566 725.195 37.0071 725.195 100.075C725.195 156.727 758.229 159.834 774.102 159.834C781.422 159.834 790.28 158.759 797.753 157.593V111.678H774.106V80.6523H888.885V185.68C857.015 192.708 812.15 198.542 765.733 198.542C647.548 198.542 629.854 153.405 629.854 99.0929C629.854 55.6995 646.731 0 765.733 0ZM1129.91 4.64853C1133.56 4.64853 1136.63 7.15395 1137.38 10.6142L1145.34 47.3051H1025.38C1021.1 47.3051 1017.63 50.747 1017.63 55.0271V80.6523H1133.96V117.88H1017.63V143.475C1017.63 147.755 1021.1 151.234 1025.38 151.234H1145.34L1137.38 187.916C1136.63 191.376 1133.57 193.884 1129.91 193.884H949.38C932.245 193.884 918.354 180 918.354 162.861V35.6715C918.354 18.5358 932.245 4.64853 949.38 4.64853H1129.91ZM597.881 4.64853C601.535 4.64853 604.605 7.15395 605.351 10.6142L613.316 47.3051H493.354C489.073 47.3051 485.601 50.747 485.601 55.0271V80.6523H601.931V117.88H485.601V143.475C485.601 147.755 489.073 151.234 493.354 151.234H613.316L605.351 187.916C604.605 191.376 601.535 193.884 597.881 193.884H417.35C400.217 193.884 386.33 180 386.33 162.861V35.6715C386.33 18.5358 400.217 4.64853 417.35 4.64853H597.881ZM1721.57 4.64853C1724.82 4.64853 1727.5 6.7241 1728.77 9.45672L1814.58 193.884H1711.4L1693.78 155.115H1597.79L1581.32 193.884H1537.25L1616.19 9.45672C1617.37 6.68725 1620.13 4.64853 1623.39 4.64853H1721.57ZM353.753 4.64822V193.884H254.488V4.64822H353.753ZM1521.74 4.64822V193.884H1422.47V4.64822H1521.74ZM1286.31 4.64853L1347.99 133.717V4.64853H1389.86L1389.87 181.848C1389.87 188.53 1384.18 193.884 1377.46 193.884H1273.38L1211.51 64.407V193.884H1169.63V17.0559C1169.63 10.2028 1175.19 4.64853 1182.04 4.64853H1286.31ZM1644.15 45.5949L1613.6 117.88H1676.86L1644.15 45.5949Z" fill="white"/>
</svg>
