<svg viewBox="0 0 383 100" fill="none" xmlns="http://www.w3.org/2000/svg">
<path fill-rule="evenodd" clip-rule="evenodd" d="M309.118 36.29V36.2688C309.123 35.4556 308.999 32.6326 307.023 30.6201C305.645 29.2154 303.688 28.501 301.194 28.501H293.493C288.255 28.501 288.255 27.3049 288.255 24.0993C288.255 24.0317 288.425 17.5439 293.572 15.6875C295.21 15.0947 297.029 14.7975 298.977 14.7945H299.063H308.135H308.272C311.484 14.7945 314.375 12.6259 315.291 9.51786C315.494 8.82899 315.603 8.11761 315.603 7.39426C315.603 3.31518 312.31 0 308.272 0C308.117 0 307.964 0.00300152 307.775 0.0180092L307.803 0.0135069H300.03H299.402C298.182 0.025513 296.869 0.106554 295.494 0.252128C291.37 0.688851 287.652 1.64334 284.432 3.08407C270.847 9.16667 270.233 21.56 270.224 21.686L270.19 21.8811C269.534 26.1763 268.414 28.504 264.383 28.504C262.383 28.504 260.773 29.1508 259.597 30.4295C257.513 32.6896 257.584 36.1475 257.589 36.1803V36.1475C257.589 43.1693 264.201 44.4902 264.288 44.5021C267.396 44.7709 269.739 47.316 269.743 50.4047C269.743 50.57 269.7 66.4178 269.7 74.735C269.7 77.6796 270.482 79.9622 272.026 81.5079C274.039 83.5326 276.599 83.5414 276.71 83.5414H280.251C280.465 83.5414 282.389 83.5099 284.216 82.2494C285.707 81.2182 287.485 79.0931 287.485 74.8101V50.2292C287.582 47.0083 290.207 44.4902 293.463 44.4902H293.445H293.456H293.471H293.508L293.545 44.4828L293.471 44.4902L293.433 44.4856C293.46 44.4902 293.508 44.493 301.024 44.4902C303.482 44.4902 305.439 43.7637 306.841 42.3364C309.034 40.105 309.121 36.8663 309.118 36.2373C309.118 36.2299 309.118 36.2389 309.113 36.2539M374.096 70.3291H373.816V72.4748H374.062C374.898 72.4748 375.59 72.1387 375.59 71.3067C375.59 70.5399 375.057 70.3291 374.096 70.3291ZM376.042 77.0534C374.929 75.0889 374.308 73.859 374 73.859H373.813V77.0534H372.004V68.9477H374.717C376.516 68.9477 377.48 69.8975 377.48 71.1586C377.48 72.4754 376.357 73.1244 375.64 73.3723V73.3944C376.042 73.3944 377.168 75.2763 378.131 77.0534H376.042ZM374.711 66.86C371.252 66.86 368.764 69.5885 368.764 73.1003C368.764 76.6178 371.252 79.3463 374.711 79.3463C378.16 79.3463 380.648 76.6178 380.648 73.1003C380.648 69.5885 378.16 66.86 374.711 66.86ZM374.711 81.221C369.905 81.221 366.653 77.7491 366.653 73.1003C366.653 68.4588 369.937 64.9769 374.742 64.9769C379.407 64.9769 382.899 68.4588 382.899 73.1003C382.899 77.7491 379.338 81.221 374.711 81.221ZM14.4745 56.9987C14.567 57.0302 17.7891 58.3455 21.2022 59.7313L31.6457 63.9827C34.1117 64.9694 35.4033 67.5959 34.7129 70.2197C33.846 73.5413 29.8839 76.6836 21.3708 75.5445C17.9816 75.0929 10.0963 73.4081 10.0187 73.3947L10.0814 73.4081C9.87554 73.3348 5.13781 71.65 2.21553 73.2064C1.16535 73.767 0.480639 74.6654 0.173346 75.8881C-0.932024 80.3251 3.60879 81.8812 3.65503 81.8946C5.27951 82.4687 7.0711 82.8769 8.5106 83.2027L9.73382 83.4868C9.83675 83.5092 20.1684 85.9802 28.3595 85.8576C33.7447 85.7753 46.8316 84.572 51.954 75.1603C52.703 73.7848 53.7576 68.9218 53.2325 65.8827C52.612 62.2995 51.5408 58.7537 45.4024 54.7728C43.842 53.7606 38.9865 52.1581 34.7054 50.7396C32.4275 49.9862 30.2765 49.2731 29.1486 48.8172C21.6124 45.7644 20.2579 43.014 20.1296 41.6429C20.0461 40.815 20.3027 38.988 21.7542 37.3811C23.5547 35.3898 26.5605 34.3823 30.694 34.3823C36.8982 34.3823 39.3149 35.1045 41.8716 35.8681C42.3518 36.0178 42.8545 36.1656 43.3752 36.3047C45.313 36.8354 46.8465 36.7606 47.9398 36.0805C49.2376 35.2778 49.5121 33.8755 49.6078 33.4153C49.7703 32.5736 49.967 29.6929 45.4608 27.8885C45.0772 27.736 35.833 24.1184 21.2917 26.138C19.2421 26.4235 15.2353 27.2113 11.4657 29.3072C5.96273 32.3628 3.11803 37.0836 3.21797 42.9601C3.29256 47.1785 5.27355 50.9429 8.9417 53.8579C11.6925 56.0404 14.3791 56.9672 14.4984 56.9987M105.584 69.8604C97.1323 69.8604 90.258 62.9846 90.258 54.5327C90.258 46.079 97.1323 39.2047 105.584 39.2047C114.038 39.2047 120.911 46.079 120.911 54.5327C120.911 62.9846 114.038 69.8604 105.584 69.8604ZM105.584 11.603C81.875 11.603 62.656 30.8217 62.656 54.5334C62.656 78.2434 81.875 97.4652 105.584 97.4652C129.296 97.4652 148.518 78.2434 148.518 54.5334C148.518 30.8217 129.296 11.603 105.584 11.603ZM162.446 34.7677V76.4366C162.446 76.441 162.442 76.4441 162.442 76.45V76.489C162.442 80.254 165.394 83.3287 169.109 83.528C169.236 83.537 169.36 83.5414 169.492 83.5414C169.618 83.5414 169.744 83.537 169.87 83.528C173.559 83.3302 176.496 80.2933 176.535 76.561V76.4921V76.4157V58.4736C176.535 47.9977 178.581 35.2186 191.091 35.2186C197.559 35.2186 197.166 43.4144 197.166 45.6618V76.7079H197.177C197.289 80.5029 200.397 83.5414 204.215 83.5414C208.104 83.5414 211.26 80.3847 211.26 76.4921C211.26 76.3496 211.257 76.2074 211.248 76.0696V58.9068C211.248 58.9068 209.319 34.8877 225.93 35.2308C231.951 35.3536 231.893 42.2338 231.893 45.6708V76.3543C231.893 76.4008 231.893 76.4441 231.893 76.4921C231.893 80.3847 235.047 83.5414 238.94 83.5414C242.829 83.5414 245.983 80.3847 245.983 76.4921C245.983 76.3303 245.977 76.1728 245.964 76.0141V38.9001C245.964 31.3563 239.34 27.8577 233.346 27.8577C222.045 27.8577 220.881 31.6753 214.447 31.6753C208.387 31.6753 207.831 27.8472 197.99 27.8472C189.399 27.8472 187.678 31.6768 181.348 31.6768C176.385 31.6768 173.692 27.8621 169.492 27.8621C162.084 27.8621 162.446 34.7677 162.446 34.7677ZM351.405 50.3252C349.83 53.4681 347.931 55.2724 346.194 55.2724C344.17 55.2724 342.882 55.027 339.97 50.0651L329.383 31.481C328.6 29.9779 327.054 28.967 324.983 28.3043C322.903 27.6372 320.758 27.7034 319.249 28.4821C318.357 28.9376 317.749 29.6179 317.49 30.4392C317.253 31.1739 317.312 31.9762 317.655 32.7754L317.658 32.7813C317.739 32.965 336.502 69.9995 337.612 72.3579C338.139 73.4745 338.411 74.6941 338.411 75.9885C338.411 82.7665 334.644 85.6786 332.807 87.1863C328.192 90.9888 321.656 90.7331 321.59 90.7315L321.581 90.7287H321.572H318.004C315.772 90.7287 313.28 92.5801 313.28 95.2306C313.28 98.062 315.176 99.7534 318.351 99.7534H321.6L321.562 99.7503C321.74 99.7653 325.9 100.097 331.232 98.3839C336.156 96.8001 343.007 93.0943 347.719 84.4195C348.844 82.3564 358.573 60.4737 365.674 44.4962L370.987 32.5652C371.016 32.4888 371.468 30.8183 371.221 30.2306C370.916 29.4959 370.417 28.8494 369.6 28.4277C368.222 27.7151 366.307 27.8091 364.361 28.2646C362.593 28.6804 360.753 30.5303 360.198 31.4988L351.405 50.3252Z" fill="#F2AF32"/>
</svg>
