<svg width="78" height="78" viewBox="0 0 78 78" fill="none" xmlns="http://www.w3.org/2000/svg">
<rect width="77.4258" height="77.4233" rx="16" fill="#2F8004"/>
<path fill-rule="evenodd" clip-rule="evenodd" d="M24.7875 45.0882H18.9694V39.1874H27.4927L37.7488 15.6562H39.7716L59.9371 61.6898H53.7966L46.6098 45.1549H31.05L23.8477 61.7682H17.4883L24.7875 45.0882ZM33.3681 39.153L38.7935 26.736L44.0991 39.174H33.3587L33.3681 39.153Z" fill="white"/>
<path fill-rule="evenodd" clip-rule="evenodd" d="M24.7875 45.0882H18.9694V39.1874H27.4927L37.7488 15.6562H39.7716L59.9371 61.6898H53.7966L46.6098 45.1549H31.05L23.8477 61.7682H17.4883L24.7875 45.0882ZM33.3681 39.153L38.7935 26.736L44.0991 39.174H33.3587L33.3681 39.153Z" stroke="white" stroke-width="0.216" stroke-miterlimit="2.61313" stroke-linejoin="bevel"/>
</svg>
