<svg width="22" height="22" viewBox="0 0 22 22" fill="none" xmlns="http://www.w3.org/2000/svg">
<g clip-path="url(#clip0_2044_4)">
<path d="M11 0C17.0751 0 22 4.92487 22 11C22 17.0751 17.0751 22 11 22C4.92487 22 0 17.0751 0 11C0 4.92487 4.92487 0 11 0ZM2.05664 12C2.46749 15.7159 5.13946 18.748 8.66699 19.6924C7.12529 17.4163 6.21167 14.7618 6.0332 12H2.05664ZM15.9668 12C15.7883 14.762 14.8739 17.4162 13.332 19.6924C16.86 18.7483 19.5325 15.7162 19.9434 12H15.9668ZM8.03711 12C8.24041 14.7382 9.27531 17.3489 11 19.4834C12.7247 17.3489 13.7596 14.7382 13.9629 12H8.03711ZM13.332 2.30664C14.8742 4.58299 15.7883 7.23776 15.9668 10H19.9434C19.5325 6.28371 16.8601 3.25069 13.332 2.30664ZM11 2.51562C9.27502 4.65027 8.24043 7.26152 8.03711 10H13.9629C13.7596 7.26152 12.725 4.65027 11 2.51562ZM8.66699 2.30664C5.13934 3.25097 2.4675 6.28403 2.05664 10H6.0332C6.21169 7.23794 7.12502 4.58289 8.66699 2.30664Z" fill="#F8FFC3"/>
</g>
<defs>
<clipPath id="clip0_2044_4">
<rect width="22" height="22" fill="white"/>
</clipPath>
</defs>
</svg>
