<svg width="41" height="41" viewBox="0 0 41 41" fill="none" xmlns="http://www.w3.org/2000/svg">
<path d="M41 20.218C41 31.3841 31.8218 40.436 20.5 40.436C9.17816 40.436 0 31.3841 0 20.218C0 9.05192 9.17816 0 20.5 0C31.8218 0 41 9.05192 41 20.218Z" fill="#2F4720"/>
<path d="M21 8.87622C27.0751 8.87622 32 13.7333 32 19.7249C32 25.7165 27.0751 30.5736 21 30.5736C14.9249 30.5736 10 25.7165 10 19.7249C10 13.7333 14.9249 8.87622 21 8.87622ZM12.0566 20.7112C12.4675 24.3759 15.1395 27.3663 18.667 28.2977C17.1253 26.0529 16.2117 23.435 16.0332 20.7112H12.0566ZM25.9668 20.7112C25.7883 23.4351 24.8739 26.0528 23.332 28.2977C26.86 27.3666 29.5325 24.3763 29.9434 20.7112H25.9668ZM18.0371 20.7112C18.2404 23.4117 19.2753 25.9864 21 28.0916C22.7247 25.9864 23.7596 23.4117 23.9629 20.7112H18.0371ZM23.332 11.1511C24.8742 13.3962 25.7883 16.0144 25.9668 18.7387H29.9434C29.5325 15.0735 26.8601 12.0822 23.332 11.1511ZM21 11.3572C19.275 13.4625 18.2404 16.0379 18.0371 18.7387H23.9629C23.7596 16.0379 22.725 13.4625 21 11.3572ZM18.667 11.1511C15.1393 12.0825 12.4675 15.0738 12.0566 18.7387H16.0332C16.2117 16.0146 17.125 13.3961 18.667 11.1511Z" fill="white"/>
</svg>
