<svg width="1012" height="597" viewBox="0 0 1012 597" fill="none" xmlns="http://www.w3.org/2000/svg">
<defs>
<style>
path { stroke: #344924ff; stroke-width: 1.5; }
</style>
</defs>
<path d="M102.115 52.1512C107.911 46.8663 117.069 49.5986 119.006 57.1981C119.551 59.336 120.646 60.7487 122.744 61.5868C123.81 62.0124 124.841 62.8751 125.548 63.8006C127.938 66.9323 130.76 69.1253 134.897 69.3192C136.919 69.4161 138.624 70.3454 139.781 72.1356C140.287 72.9204 140.823 73.7604 141.545 74.3172C143.886 76.1302 145.525 78.0778 145.897 81.3426C146.257 84.5105 152.026 85.7691 153.985 82.9871C156.971 78.7511 160.692 79.277 164.753 80.117C167.816 80.7498 170.851 81.0098 173.962 80.1737C176.275 79.5522 177.398 80.5257 177.58 82.8612C177.797 85.6243 178.59 86.7016 181.366 86.8651C183.616 86.9981 184.646 88.1049 185.551 89.9559C187.029 92.9869 188.348 96.1664 191.328 98.1883C194.54 100.366 196.717 100.582 198.838 98.8094C201.134 96.89 201.835 93.7807 200.228 90.7381C199.076 88.5586 199.604 87.3333 201.32 85.7694C202.814 84.4088 203.943 82.5289 204.866 80.6951C205.986 78.4717 205.41 76.7056 203.55 75.0789C201.906 73.6442 200.159 73.6233 197.947 74.7938C196.562 75.5273 195.07 76.0694 193.601 76.6414C192.012 77.2588 191.193 76.4551 191.136 74.9617C191.037 72.324 191.117 69.7826 190.184 67.1258C189.785 65.9874 191.769 63.57 193.194 62.3348C195.503 60.33 198.076 58.4487 200.847 57.2059C203.874 55.849 207.124 56.1301 210.167 57.9393C211.986 59.0206 213.958 60.0131 215.993 60.5243C219.79 61.4801 220.877 62.6679 220.961 66.6151C220.995 68.2512 221.077 69.9691 221.59 71.4969C222.342 73.7394 224.197 74.9955 226.562 75.0506C228.905 75.1018 230.147 73.5113 230.976 71.5008C232.581 67.6126 235.516 66.8161 238.84 69.4158C239.326 69.7977 239.915 70.7211 239.762 71.1356C238.914 73.4066 238.205 75.862 236.787 77.7586C234.014 81.4682 233.695 83.5133 236.259 87.3407C236.781 88.1197 237.363 88.8662 237.825 89.6795C239.205 92.1196 239.047 92.9503 237.137 95.0008C235.816 96.4165 234.136 97.8858 235.202 100.071C236.247 102.215 238.45 102.052 240.373 101.782C244.409 101.22 247.943 99.8263 249.304 95.4061C250.127 92.7265 249.864 90.2762 248.074 88.0584C247.574 87.4408 247.08 86.8176 246.582 86.2C245.172 84.4479 244.384 82.7506 246.138 80.6336C246.932 79.6758 247.337 78.3187 247.675 77.076C248.285 74.8281 249.779 73.5928 251.938 73.3172C254.201 73.0265 256.508 73.0836 258.792 72.9373C260.434 72.8309 262.07 72.5062 263.708 72.5213C265.529 72.5384 267.46 72.5064 269.134 73.0936C270.766 73.6656 271.388 75.4084 270.048 76.7938C267.769 79.1482 265.428 81.5558 262.724 83.3592C259.136 85.7498 257.873 87.5425 258.848 91.7498C259.606 95.0259 259.702 98.0438 258.218 101.206C257.07 103.65 257.705 106.012 259.604 108.19C260.871 109.642 261.455 111.67 262.49 113.351C263.087 114.319 263.861 115.647 264.756 115.831C265.788 116.04 267.361 115.489 268.144 114.71C271.448 111.42 271.78 107.315 270.033 103.273C268.209 99.0527 269.026 95.33 271.733 92.1678C274.951 88.4107 278.565 84.959 282.258 81.658C284.555 79.6056 287.416 79.5945 290.154 81.1375C291.602 81.9528 293.069 82.7434 294.445 83.6707C296.942 85.3544 299.529 86.5233 302.644 86.702C305.817 86.8844 308.175 89.6816 308.102 92.8836C307.982 98.0584 310 101.943 314.554 104.503C316.061 105.35 317.53 106.293 318.921 107.319C322.02 109.601 322.254 113.159 319.556 115.831C316.796 118.56 316.866 122.314 319.727 124.971C324.327 129.243 323.033 135.51 317.087 137.735C316.682 137.887 316.264 138.001 315.848 138.121C311.697 139.331 311.136 140.314 312.037 144.545C312.622 147.294 313.12 150.065 313.652 152.826C313.956 154.4 313.421 155.62 312.205 156.654C307.637 160.537 302.169 159.787 298.812 154.799C298.009 153.602 297.158 152.433 296.329 151.253C294.191 148.22 291.566 146.096 287.573 146.168C286.623 146.185 285.603 145.719 284.718 145.27C283.247 144.522 282.37 143.292 282.79 141.557C283.206 139.832 284.584 139.016 286.183 139.079C287.496 139.128 288.849 139.618 290.074 140.158C292.381 141.177 294.462 140.977 296.312 139.296C299.746 136.166 301.777 132.169 302.531 127.677C303.194 123.743 299.693 120.695 295.767 121.411C294.634 121.618 293.516 121.925 292.382 122.131C290.675 122.437 290.023 121.549 290.434 120.027C290.825 118.575 291.618 117.234 292.026 115.788C292.566 113.871 293.182 111.907 293.256 109.944C293.332 107.909 291.88 106.878 289.82 106.93C285.607 107.036 283.832 108.882 283.762 113.116C283.731 114.843 283.613 116.574 283.438 118.294C282.992 122.663 280.449 125.47 276.675 127.428C274.641 128.482 272.549 129.556 270.807 131.008C268.374 133.033 268.237 135.043 269.788 137.751C273 143.36 272.855 143.742 266.572 145.572C263.939 146.339 261.283 147.032 258.636 147.753C258.424 147.811 258.197 147.757 258.033 147.612C257.839 147.439 257.767 147.167 257.846 146.92C258.146 145.98 258.418 145.027 258.802 144.121C259.303 142.937 260.159 141.856 260.431 140.634C260.6 139.881 260.211 138.626 259.628 138.189C259.067 137.77 257.708 137.764 257.089 138.171C252.509 141.171 247.747 143.999 243.629 147.558C241.558 149.349 240.31 152.421 239.427 155.154C238.61 157.682 237.361 159.487 235.206 160.884C229.607 164.51 228.278 170.929 231.847 176.627C233.162 178.725 234.972 179.755 237.464 179.548C238.328 179.475 239.195 179.437 240.06 179.407C242.093 179.335 243.346 180.038 243.946 182.241C245.092 186.452 247.487 188.14 251.924 188.007C255.438 187.9 256.985 187.539 256.08 193.136C255.748 195.186 254.925 197.155 254.482 199.194C253.802 202.315 254.883 204.91 257.112 205.874C260.033 207.138 262.68 206.144 263.75 203.043C264.47 200.951 264.758 198.696 265.104 196.494C265.461 194.219 266.673 192.754 268.704 191.711C273.987 188.995 275.175 185.802 272.937 180.154C271.77 177.216 271.979 174.694 274.278 172.414C276.49 170.219 277.176 167.391 277.758 164.423C278.336 161.475 279.227 158.554 280.309 155.747C281.377 152.978 285.113 152.23 287.101 154.409C289.358 156.885 291.804 158.754 295.148 159.531C297.351 160.042 297.999 161.924 298.063 164.067C298.155 167.022 298.227 169.987 298.556 172.918C298.808 175.181 299.497 177.564 302.163 177.988C304.821 178.41 306.368 176.483 307.605 174.432C308.274 173.321 308.727 172.066 309.476 171.02C309.488 171.003 309.501 170.986 309.515 170.97C310.183 170.162 311.874 170.888 311.916 171.935C312.039 174.883 311.819 177.864 312.165 180.779C312.9 186.944 316.032 191.867 320.701 195.869C321.632 196.667 322.587 197.463 323.393 198.379C326.948 202.417 328.305 206.986 325.641 211.93C323.52 215.864 324.217 219.009 327.093 222.132C329.637 224.899 331.091 228.135 330.299 232.033C329.89 234.043 328.818 234.694 327.342 233.419C324.947 231.355 322.227 231.366 319.399 231.334C317.828 231.317 316.137 231.398 315.409 229.473C314.651 227.472 314.502 225.625 316.034 223.803C317.18 222.436 318.253 220.918 318.968 219.297C320.338 216.186 318.256 213.415 314.943 213.957C313.296 214.225 311.515 214.81 310.219 215.805C308.377 217.219 306.606 217.29 304.533 216.834C302.433 216.37 300.298 215.827 298.166 215.783C295.437 215.728 293.176 217.087 291.462 219.222C290.305 220.659 290.278 222.278 290.954 223.928C291.621 225.549 292.979 226.069 294.609 226.139C295.474 226.177 296.454 226.039 297.167 226.404C298.001 226.832 299.033 227.615 299.229 228.425C299.745 230.589 300.939 231.765 303.009 232.419C304.504 232.892 305.943 233.622 307.3 234.418C307.798 234.712 308.313 235.585 308.229 236.098C308.142 236.655 307.402 237.486 306.882 237.537C303.286 237.889 300.667 239.992 297.933 242.039C295.664 243.738 294.387 243.392 292.629 241.131C289.305 236.862 281.16 237.778 278.885 242.708C278.594 243.333 278.509 244.102 278.507 244.804C278.488 248.933 276.789 251.067 272.832 251.848C268.556 252.694 265.43 254.935 263.864 259.135C262.933 261.637 262.125 264.222 260.877 266.563C259.779 268.623 258.397 270.682 256.683 272.234C254.343 274.351 251.768 276.401 248.946 277.749C241.065 281.51 239.311 288.107 239.798 295.932C239.963 298.595 240.229 301.253 240.439 303.914C240.468 304.275 240.461 304.638 240.445 304.999C240.35 307.247 239.07 309.146 237.53 309.328C235.999 309.51 234.509 307.893 234.093 305.499C233.772 303.654 233.682 301.759 233.245 299.944C232.42 296.525 230.257 295.066 226.859 295.71C225.366 295.993 224.475 295.671 223.532 294.497C220.68 290.94 218.699 291.149 215.292 294.149C213.089 296.091 210.077 295.51 207.494 294.396C204.743 293.211 202.101 292.776 199.103 293.566C195.195 294.596 192.628 296.909 191.079 300.509C189.538 304.087 188.238 307.785 186.473 311.249C182.904 318.252 186.545 329.306 192.345 333.811C195.418 336.196 198.953 336.738 202.596 336.122C203.827 335.911 204.969 334.644 205.961 333.667C207.175 332.47 208.275 331.131 209.264 329.738C210.242 328.36 211.155 326.897 211.839 325.356C212.327 324.258 212.216 322.752 214.036 323.091C215.347 323.336 216.388 325.343 215.893 326.749C215.535 327.758 214.982 328.71 214.45 329.647C211.351 335.101 213.158 339.626 219.224 341.303C220.807 341.742 222.491 341.829 224.133 342.034C227.042 342.397 228.494 344.725 227.456 347.502C226.673 349.592 225.632 351.604 225.035 353.744C224.52 355.601 224.165 357.697 226.007 359.164C227.972 360.726 230.176 361.059 232.506 359.929L234.064 359.17C237.2 357.623 237.122 357.697 239.602 360.204C241.139 361.76 242.882 363.372 245.383 362.024C247.832 360.703 250.415 359.531 252.604 357.856C254.712 356.243 256.734 355.118 259.477 355.291C260.632 355.367 261.919 354.995 262.992 354.499C267.101 352.599 270.307 353.164 273.237 356.484C275.839 359.432 277.613 359.814 281.237 358.063C283.55 356.95 285.865 356.642 288.011 358.21C290.525 360.042 293.317 360.595 296.229 360.059C298.646 359.615 300.238 360.537 300.506 363.376C300.975 368.415 304.388 370.403 308.415 371.741C311.553 372.782 314.82 373.525 318.085 374.09C325.158 375.316 329.747 379.501 331.229 386.255C333.215 395.302 339.485 398.707 347.543 400.412C350.572 401.054 353.586 401.773 356.607 402.455C361.873 403.641 365.876 407.022 369.946 410.235C374.731 414.007 373.166 419.192 370.237 423.789C369.433 425.053 368.31 426.136 367.234 427.2C364.129 430.275 363.53 434.082 363.88 438.194C364.283 442.93 363.913 447.554 362.153 452.035C360.861 455.325 359.726 458.677 358.514 461.999C357.381 465.104 355.501 467.335 352.033 468.002C350.057 468.382 348.135 469.066 346.212 469.691C340.77 471.457 338.616 474.427 338.052 480.132C337.772 482.973 337.1 485.803 336.332 488.562C335.403 491.886 333.344 494.408 330.273 496.141C326.594 498.219 323.797 501.047 322.28 505.187C321.799 506.498 320.082 507.444 318.776 508.328C317.976 508.87 316.844 508.889 315.926 509.294C313.617 510.312 312.308 511.947 312.382 514.668C312.486 518.594 310.757 520.365 306.884 520.648C306.165 520.703 305.443 520.746 304.723 520.814C300.458 521.215 298.808 523.186 299.397 527.416C299.664 529.337 299.341 530.782 297.505 531.764C296.695 532.198 296.028 532.914 295.331 533.541C293.668 535.033 292.973 536.793 293.906 538.972C294.936 541.371 294.934 543.363 292.604 545.274C290.482 547.017 290.693 548.237 292.601 550.088C294.463 551.903 294.231 556.963 292.179 559.188C287.557 564.209 286.654 571.382 289.921 577.398C291.973 581.18 294.401 584.647 298.025 587.131C300.454 588.795 302.988 590.066 306.05 589.956C307.225 589.912 307.953 591.446 307.093 592.248C306.478 592.82 305.695 593.136 304.855 593.439C303.187 594.042 301.653 595.04 299.968 595.566C298.45 596.043 296.664 596.653 295.242 596.277C289.484 594.747 283.966 592.581 279.938 587.856C279.299 587.108 278.802 586.199 278.408 585.293C277.302 582.727 276.199 580.157 275.255 577.531C274.385 575.108 273.528 572.651 273.021 570.138C272.547 567.807 271.916 565.707 270.118 564.019C267.441 561.505 266.472 558.487 268.049 555C269.407 552.001 269.664 549.295 267.179 546.612C266.531 545.913 266.475 544.21 266.783 543.151C268.475 537.332 268.788 531.546 267.302 525.626C267.013 524.474 267.325 522.999 267.804 521.861C269.712 517.332 269.88 512.748 268.599 508.079C267.187 502.94 267.68 497.861 269.391 492.956C270.563 489.596 270.778 486.244 270.913 482.759C271.063 478.827 271.601 474.889 272.281 471.009C272.753 468.333 272.433 465.906 271.593 463.375C270.719 460.741 270.038 458.019 269.518 455.288C268.415 449.505 266.245 444.767 259.963 442.861C255.672 441.559 252.384 438.585 250.184 434.725C248.048 430.982 246.466 426.925 244.41 423.132C243.441 421.34 242.03 419.745 240.622 418.246C239.546 417.102 238.11 416.306 236.922 415.253C234.096 412.752 233.572 410.332 235.269 407.003C236.65 404.295 236.124 401.853 234.659 399.421C232.088 395.151 232.622 394.422 235.569 390.528C237.878 387.48 240.77 385.269 243.4 382.67C248.568 377.556 245.717 367.442 238.689 365.891C234.52 364.968 230.224 364.598 225.971 364.083C223.508 363.786 221.611 363.231 220.362 360.57C217.633 354.765 212.388 352.053 206.398 350.642C202.725 349.776 199.184 348.869 196.358 345.99C195.33 344.943 193.427 344.446 191.869 344.298C188.813 344.009 185.947 343.497 183.175 342.006C180.911 340.79 178.353 340.088 175.887 339.278C169.342 337.131 165.051 333.262 163.938 325.985C162.748 318.211 159.204 311.307 153.957 305.434C151.525 302.713 150.591 299.444 149.458 296.181C148.584 293.663 147.769 291.115 146.72 288.669C146.22 287.51 145.354 286.441 144.451 285.535C142.661 283.741 140.568 283.431 138.738 284.474C136.948 285.491 136.391 287.09 137.14 289.777C138.88 296.031 140.648 302.28 142.541 308.49C142.927 309.748 143.792 310.915 144.626 311.972C146.281 314.065 147.402 316.933 147.474 319.442C147.503 320.482 146.293 321.146 145.474 320.505C140.052 316.229 137.383 310.332 136.511 303.747C135.568 296.624 134.15 289.708 131.585 282.964C130.12 279.11 129.335 274.961 128.565 270.885C128.026 268.017 126.268 265.989 124.772 263.701C122.654 260.455 120.458 257.194 118.869 253.68C116.912 249.353 117.243 244.836 119.162 240.432C119.662 239.285 119.845 237.953 119.947 236.687C120.078 235.108 119.96 233.509 119.979 231.921C120.027 228.074 120.954 224.578 123.356 221.414C126.418 217.383 126.036 212.406 122.557 208.833C120.594 206.815 119.749 204.707 120.277 201.809C121.345 195.954 118.799 190.888 115.996 186.068C113.776 182.247 112.002 178.394 112.026 173.896C112.078 164.444 109.584 155.696 105.206 147.331C101.875 140.961 96.6896 137.378 89.8652 136.24C87.5905 135.862 84.983 136.51 82.7197 137.263C79.6032 138.3 76.7129 139.01 73.5166 137.514C71.5174 136.581 69.5013 137.504 67.7891 138.635C64.9575 140.505 62.2183 142.513 59.457 144.487C47.8874 152.752 35.0046 158.382 21.7607 163.271C15.0639 165.746 8.33474 168.135 1.57324 170.421C0.293142 170.855 -0.647421 168.402 0.553337 167.781C0.616897 167.749 0.681755 167.719 0.748047 167.693C5.98927 165.652 11.2915 163.75 16.6221 161.956C26.8842 158.499 36.4133 153.55 45.5713 147.862C47.5664 146.621 49.2729 144.87 50.9717 143.209C52.872 141.348 53.224 139.033 52.1504 136.618C51.0216 134.072 49.5697 131.576 46.877 130.546C42.9716 129.052 41.936 123.36 43.3232 120.126C44.106 118.305 44.4576 116.303 45.0029 114.38C45.3773 113.065 45.6031 111.685 46.1465 110.442C48.4023 105.29 51.1489 103.912 56.6543 105.023C60.3029 105.757 62.7334 104.841 64.3164 102.138C65.9108 99.4144 65.0883 96.5975 62.2285 95.2596C61.2555 94.8035 60.1852 94.5562 59.1533 94.2313C56.5327 93.4046 55.2689 91.567 56.0195 88.9539C56.7113 86.5461 57.6024 84.119 58.8643 81.9715C60.9338 78.4522 64.817 78.0439 67.8975 80.7215C68.2793 81.0521 68.6292 81.419 68.9883 81.7742C71.2306 83.9842 73.045 83.7751 74.7344 81.1014C76.2489 78.7051 75.719 76.1171 75.5518 73.5194C75.3541 70.4559 74.9663 67.3046 75.4414 64.3153C76.2244 59.3723 79.2237 57.2154 84.2598 57.1717C85.4131 57.1622 86.5798 57.1619 87.7217 57.2987C93.3904 57.9847 98.02 55.8853 102.115 52.1512Z" fill="#C2CDBB"/>
<path d="M1001.09 524.083C1001.4 523.973 1002.28 524.641 1002.46 525.126C1004.01 529.149 1005.41 533.226 1006.95 537.253C1007.63 539.029 1008.36 540.819 1009.34 542.438C1010.28 543.983 1010.38 545.605 1008.7 546.791C1006.39 548.421 1004.81 550.378 1003.91 553.028L1003.67 553.769C1002.97 555.825 1001.13 557.02 999.105 557.838C996.17 559.022 993.807 560.775 991.939 563.485C990.547 565.507 988.237 566.87 986.52 568.696C983.355 572.058 980.52 575.752 977.168 578.903C976.141 579.866 974.958 580.662 973.699 581.425C971.144 582.973 967.301 583.293 965.569 580.859C965.17 580.297 965.834 578.824 966.254 577.87C966.771 576.69 967.46 575.565 968.217 574.519C969.051 573.368 969.937 572.21 970.993 571.269C973.557 568.983 976.231 566.82 978.859 564.606C979.186 564.329 979.49 564.019 979.832 563.764C982.354 561.889 984.929 560.083 987.394 558.138C989.045 556.832 990.36 555.306 990.714 553.009C990.837 552.21 992.02 551.45 992.871 550.918C994.078 550.16 995.497 549.736 996.7 548.972C998.367 547.912 999.22 546.356 999.382 544.294C999.604 541.498 1000.27 538.735 1000.42 535.939C1000.54 533.754 1000.16 531.54 999.991 529.336C999.896 528.059 999.646 526.766 999.76 525.506C999.808 524.968 1000.53 524.277 1001.09 524.083Z" fill="#C2CDBB"/>
<path d="M315.766 570.351C317.442 570.534 319.156 570.38 320.524 570.994C321.395 571.385 322.159 572.892 322.222 573.945C322.281 574.916 321.479 576.688 320.812 576.817C318.324 577.287 315.721 577.461 313.189 577.296C310.746 577.138 309.921 575.034 311.179 572.925C312.097 571.384 314.059 570.31 315.766 570.351Z" fill="#C2CDBB"/>
<path d="M909.964 546.715C910.39 544.183 911.594 543.796 913.723 545.226C914.637 545.84 915.72 546.375 916.79 546.548C918.774 546.867 919.806 548.526 918.675 550.158C917.21 552.273 915.661 554.349 913.974 556.285C913.345 557.009 912.041 557.852 911.368 557.638C910.623 557.402 910.055 556.068 909.765 555.106C909.025 552.636 909.499 549.951 909.858 547.398C909.89 547.171 909.925 546.942 909.964 546.715Z" fill="#C2CDBB"/>
<path d="M889.158 434.888C892.767 432.888 895.504 433.901 897.189 437.626C897.845 439.072 898.679 440.471 899.106 441.981C899.872 444.699 901.65 446.164 904.202 447.094C905.667 447.628 907.024 448.523 908.339 449.391C909.952 450.458 911.507 450.613 913.214 449.657C914.341 449.024 915.635 448.646 916.676 447.903C917.93 447.01 919.26 446.031 920.091 444.777C922.529 441.102 924.968 440.811 927.26 444.564C929.542 448.297 931.307 452.347 933.303 456.254C933.955 457.533 934.379 459.022 935.315 460.047C939.177 464.273 941.786 469.237 944.055 474.398C946.379 479.685 947.033 485.317 946.073 490.932C945.657 493.376 943.751 495.537 942.719 497.912C941.786 500.063 941.199 502.365 940.312 504.539C939.54 506.434 939.021 508.786 937.592 509.987C932.847 513.98 930.766 519.151 929.817 524.991C929.451 527.254 928.004 528.355 926.055 529.324C923.704 530.491 921.42 531.894 919.363 533.52C917.016 535.373 916.476 535.544 914.263 533.627C913.773 533.203 913.2 532.859 912.752 532.399C910.445 530.031 907.968 529.689 904.92 531.128C902.045 532.484 899.254 530.84 898.818 527.56C898.434 524.666 897.398 522.186 895.768 519.814C894.568 518.072 893.978 516.122 894.401 513.868C895.18 509.74 892.009 507.216 888.037 508.678C887.674 508.812 887.313 508.95 886.942 509.096C885.692 509.585 884.336 508.723 884.253 507.384C883.88 501.367 880.097 498.41 874.168 499.167C871.629 499.49 868.99 499.404 866.434 499.133C862.112 498.678 858.541 499.965 855.918 503.353C852.674 507.543 848.735 509.476 843.456 507.998C841.046 507.323 838.893 507.999 836.534 508.651C834.181 509.301 831.454 508.967 828.959 508.604C827.391 508.376 826.7 505.991 827.484 504.471C827.978 503.517 828.558 502.56 829.288 501.779C832.019 498.849 832.337 495.373 831.771 491.66C830.957 486.322 830.116 480.987 829.343 475.645C828.932 472.82 829.987 470.693 831.924 468.468C836.612 463.08 842.96 461.128 849.332 459.102C851.878 458.295 853.598 456.723 855.177 454.595C856.602 452.675 858.447 450.862 860.492 449.653C863.624 447.806 866.291 445.627 868.224 442.569C869.229 440.979 870.567 440.572 872.437 440.633C875.494 440.731 878.601 440.665 881.619 440.209C883.012 440 884.299 438.785 885.53 437.885C886.796 436.961 887.811 435.636 889.158 434.888Z" fill="#C2CDBB"/>
<path fill-rule="evenodd" clip-rule="evenodd" d="M697.087 40.7293C698.455 38.6162 699.592 38.6223 701.468 40.3231C701.842 40.6631 702.227 40.9958 702.565 41.37C704.394 43.4015 706.547 44.3672 709.339 43.7059C711.844 43.1149 714.19 43.3539 716.617 44.5682C719.821 46.1683 723.326 47.1523 726.595 48.6366C730.226 50.2842 730.464 50.8055 729.232 54.6766C728.375 57.3731 728.968 59.64 730.446 61.8348C732.732 65.2289 734.129 65.7098 737.907 64.0565C741.009 62.6996 744.162 62.3312 747.419 63.118C748.51 63.3803 749.585 63.8804 750.549 64.4676C753.943 66.5352 756.828 66.1622 759.41 63.1805C760.214 62.2512 761.016 61.3128 761.716 60.3075C763.284 58.0517 765.382 57.4817 767.978 58.0594C773.323 59.2491 777.747 61.7118 780.921 66.3924C782.09 68.1142 783.867 69.5584 785.647 70.6834C787.495 71.8521 789.597 71.2555 790.438 69.3133C791.907 65.9326 794.542 65.2386 797.803 65.1854C799.5 65.1587 801.337 64.969 802.85 64.285C806.057 62.8331 807.282 59.5754 806.598 55.4344C805.999 51.7972 808.747 49.1107 812.439 49.8328C813.551 50.0514 814.643 50.5354 815.654 51.0731C818.06 52.3596 820.552 52.5173 823.22 52.2C824.563 52.0404 826.09 52.2709 827.348 52.7821C829.609 53.7019 831.63 55.3832 833.948 55.9647C836.126 56.51 838.672 56.4891 840.855 55.9305C844.117 55.0962 847.244 53.6616 850.354 52.3123C852.889 51.2122 855.309 51.3643 857.635 52.6356C859.594 53.7054 861.532 54.8681 863.288 56.2381C868.189 60.0598 871.302 60.4743 876.49 57.2303C878.565 55.9325 880.637 55.5868 882.885 55.9364C886.243 56.4552 888.706 54.5832 891.153 52.8709C891.834 52.3958 892.189 50.9461 892.107 49.994C891.877 47.3106 894.246 44.5322 897.109 44.4637C897.469 44.4561 897.885 44.4024 898.182 44.5526C903.26 47.1485 908.812 45.8966 914.124 46.575C919.696 47.2877 925.281 47.9987 930.777 49.12C934.27 49.8306 937.425 49.4752 940.722 48.3446C942.341 47.7877 944.266 47.6696 945.975 47.911C949.96 48.4754 951.925 51.3168 951.18 55.3114C950.764 57.5385 951.146 59.1955 953.018 60.6151C954.399 61.6641 955.712 63.0064 954.768 65.0379C954.007 66.6664 950.826 68.1256 949.002 67.7684C947.873 67.5479 946.756 67.1698 945.619 67.1014C942.44 66.9057 939.92 67.8937 938.928 71.2801C938.806 71.6868 938.57 72.0732 938.329 72.4285C934.264 78.4355 934.832 83.004 939.979 88.1121C942.766 90.879 945.879 93.4558 946.979 97.5623C947.396 99.1055 946.97 99.644 945.533 99.9461C940.524 100.999 940.291 101.358 940.034 106.293C939.981 107.33 939.475 108.348 939.181 109.374C938.514 111.69 937.827 114.003 937.19 116.331C936.981 117.091 936.926 117.891 936.769 118.667C936.457 120.215 935.621 120.907 933.983 120.419C932.948 120.109 931.87 119.955 930.83 119.659C926.573 118.452 923.888 120.434 923.405 124.8C923.196 126.687 922.438 128.57 921.63 130.314C920.594 132.551 920.726 134.511 921.851 136.694C922.82 138.579 923.246 140.738 924.042 142.723C924.812 144.639 925.485 146.679 926.663 148.332C929.154 151.832 930.604 155.633 930.237 159.869C930.093 161.501 929.11 163.279 928.014 164.567C925.524 167.49 925.325 167.545 927.096 170.992C928.949 174.601 928.789 178.18 927.409 181.884C926.868 183.343 926.724 184.945 926.334 186.468C926.034 187.64 925.629 188.784 925.281 189.945C924.61 192.195 923.538 194.415 923.363 196.703C922.989 201.669 921.232 205.853 917.997 209.622C915.565 212.455 913.445 215.57 911.296 218.638C909.645 220.993 909.051 221.647 907.279 222.192C907.128 222.238 906.962 222.207 906.837 222.111C906.629 221.952 906.582 221.66 906.728 221.443C908.746 218.424 910.83 215.442 912.74 212.356C914.093 210.169 915.273 207.86 916.364 205.526C917.489 203.12 918.583 200.673 919.375 198.143C920.274 195.272 920.839 192.294 921.525 189.356C921.852 187.952 922.332 186.536 922.353 185.12C922.377 183.522 922.427 181.638 921.663 180.363C917.627 173.643 914.69 166.5 912.212 159.079C910.222 153.127 909.053 147.279 910.933 141.122C911.079 140.647 911.226 140.076 911.099 139.63C909.877 135.325 911.99 131.819 914.02 128.465C916.294 124.71 915.446 121.242 913.791 117.763C912.672 115.41 909.517 115.333 907.891 117.498C907.461 118.068 907.32 118.893 906.82 119.362C906.083 120.056 905.185 120.875 904.276 120.981C903.731 121.046 902.856 119.952 902.455 119.205C901.657 117.728 900.669 116.706 898.894 116.983C897.123 117.259 896.511 118.484 896.215 120.172C895.821 122.426 894.782 124.609 894.664 126.855C894.569 128.685 895.186 130.664 895.92 132.393C896.537 133.857 896.433 134.623 895.04 135.348C894.289 135.74 893.619 136.337 892.999 136.931C890.356 139.465 888.066 139.535 885.305 137.02C883.946 135.787 882.427 135.964 881.406 137.046C878.846 139.757 875.587 140.489 872.142 141.128C868.548 141.793 866.133 144.07 864.75 147.462C864.068 149.13 863.209 150.728 862.568 152.414C861.789 154.461 861.713 156.601 863.007 158.44C864.369 160.379 863.729 161.721 862.239 163.129C859.469 165.749 859.083 167.44 860.888 170.745C861.467 171.805 862.786 172.57 863.923 173.189C865.289 173.934 866.929 174.193 868.254 174.989C871.745 177.089 875.899 177.769 878.732 174.052C879.736 172.735 881.958 173.393 882.878 175.331C883.769 177.21 884.607 179.2 884.962 181.231C886.205 188.301 889.092 194.535 893.588 200.122C894.378 201.104 894.578 202.712 894.681 204.061C894.835 206.066 894.713 208.1 894.61 210.116C894.515 211.91 894.449 213.736 894.031 215.464C893.875 216.108 892.807 216.689 892.039 216.934C891.786 217.014 890.889 216.003 890.76 215.391C889.703 210.388 888.85 205.342 887.738 200.351C887.24 198.119 886.365 195.96 885.518 193.822C884.805 192.019 883.815 190.327 883.085 188.529C882.344 186.697 881.082 185.909 879.18 186.309C877.332 186.699 876.724 188.124 877.017 189.764C877.642 193.294 877.903 197.037 879.322 200.247C881.576 205.338 880.753 209.858 878.676 214.62C876.716 219.112 874.829 223.672 873.383 228.347C872.355 231.661 870.092 232.734 867.165 233.094C863.226 233.576 862.91 233.985 862.53 237.843C862.38 239.367 861.494 240.876 860.725 242.27C860.037 243.513 858.929 244.522 858.222 245.758C857.437 247.128 857.669 248.686 859.122 249.315C863.411 251.17 863.71 255.08 864.307 258.831C864.704 261.32 865.133 263.855 865.04 266.35C864.989 267.747 864.187 269.376 863.208 270.418C861.808 271.915 860.916 273.177 861.581 275.37C861.82 276.157 861.169 277.657 860.451 278.173C859.539 278.83 857.955 279.298 857.015 278.935C856.287 278.652 855.663 276.935 855.747 275.919C855.981 273.135 856.848 270.394 856.99 267.612C857.066 266.1 856.149 264.545 855.734 262.996C855.147 260.797 854.456 258.612 854.085 256.377C853.448 252.538 852.458 251.714 848.573 252.276C847.861 252.379 847.15 252.51 846.434 252.582C844.659 252.759 843.785 251.949 843.559 250.163C843.207 247.39 840.768 245.86 838.212 246.989C836.677 247.666 835.377 248.893 834.022 249.942C833.582 250.284 833.353 250.887 832.95 251.296C831.707 252.563 829.98 253.576 830.493 255.769C831.141 258.542 831.94 261.338 834.543 262.913C835.846 263.701 837.268 264.297 838.765 264.928C839.837 265.381 840.22 266.664 839.628 267.666C838.15 270.153 838.591 271.881 840.869 273.65C842.735 275.096 844.415 276.777 846.221 278.301C850.882 282.235 851.629 292.285 846.551 297.114C844.852 298.729 844.542 301.779 843.529 304.143C842.119 307.439 840.865 310.829 839.132 313.946C837.395 317.072 833.972 317.898 830.803 318.957C828.629 319.687 826.426 320.434 824.404 321.494C822.673 322.406 821.886 323.896 822.825 326.042C823.659 327.946 822.853 329.646 821.249 330.113C819.256 330.696 818.177 329.827 817.514 327.456C817.175 326.238 816.691 324.875 815.822 324.049C815.081 323.348 813.625 322.914 812.616 323.095C811.256 323.338 809.893 324.115 808.777 324.981C808.091 325.517 807.47 326.658 807.506 327.498C807.629 330.521 808.338 333.452 811.124 335.218C814.628 337.441 815.791 340.637 815.734 344.624C815.698 347.138 815.106 349.865 817.359 351.988C817.635 352.247 817.315 353.571 816.884 354.069C814.155 357.239 811.379 360.375 808.486 363.394C806.981 364.964 805.602 364.926 804.659 362.961C802.687 358.847 799.058 356.249 796.232 352.932C794.788 351.241 791.358 351.165 789.315 352.716C787.442 354.139 787.064 356.597 788.23 358.731C789.365 360.81 790.288 363.005 791.413 365.092C793.703 369.333 795.927 373.58 800.222 376.344C801.862 377.396 803.202 379.098 804.277 380.761C804.739 381.471 804.385 382.923 804.033 383.903C802.705 387.635 802.061 387.693 799.41 384.599C797.306 382.146 795.17 379.719 793.055 377.275C792.773 376.948 792.405 376.623 792.295 376.237C791.345 372.953 789.254 370.394 787.2 367.775C786.638 367.061 786.529 365.95 786.331 364.998C785.85 362.681 785.949 360.084 784.895 358.087C783.116 354.723 783.559 351.428 783.899 347.992C784.093 345.997 784.321 343.947 784.074 341.982C783.686 338.94 781.371 337.855 778.737 339.394C776.236 340.854 773.703 340.356 771.174 339.826C770.653 339.716 770.187 338.824 769.906 338.199C769.363 336.983 769.133 335.605 768.481 334.461C766.421 330.827 764.093 327.342 762.118 323.667C760.212 320.123 759.513 319.702 755.669 320.964C754.641 321.3 753.51 321.405 752.565 321.889C750.363 323.018 747.974 324.005 746.155 325.609C742.811 328.57 739.891 332.008 736.651 335.098C735.207 336.475 733.499 337.634 731.766 338.645C727.617 341.057 726.963 342.384 727.398 347.032C727.552 348.672 727.345 350.468 726.812 352.026C725.375 356.222 725.696 357.702 729.074 360.669C730.425 361.853 731.712 363.134 732.879 364.501C734.589 366.504 732.459 372.626 729.874 373.347C728.107 373.839 727.332 373.27 727.246 371.414C727.212 370.622 727.235 369.822 727.147 369.035C726.893 366.812 725.82 365.599 723.643 365.745C721.691 365.876 720.893 365.084 720.125 363.457C719.084 361.245 717.696 359.194 716.429 357.093C713.979 353.024 711.498 348.976 709.067 344.898C708.788 344.433 708.556 343.793 708.632 343.282C709.301 338.824 707.321 334.951 705.996 330.933C705.747 330.183 705.403 329.457 705.203 328.693C704.582 326.342 703.556 324.667 700.701 324.555C699.658 324.511 698.506 323.493 697.672 322.657C696.04 321.019 694.196 320.791 692.089 321.247C688.569 322.017 687.934 321.76 685.916 318.866C685.585 318.391 685.23 317.916 684.998 317.395C682.457 311.692 677.5 310.436 671.96 310.379C670.02 310.358 668.067 310.609 666.133 310.858C662.866 311.276 660.023 310.343 657.388 308.468C656.16 307.593 654.921 306.506 653.522 306.148C649.469 305.111 646.469 302.606 643.746 299.691C640.63 296.358 636.375 295.206 632.367 293.679C629.813 292.706 626.558 297.243 627.899 300.109C628.834 302.11 630.505 303.828 632.08 305.447C632.948 306.34 634.248 306.891 635.443 307.38C639.402 308.997 642.418 311.667 644.664 315.264C645.875 317.199 647.475 318.104 649.905 317.962C651.298 317.88 652.791 318.615 654.157 319.174C655.687 319.799 657.125 320.651 658.609 321.387C660.314 322.228 660.945 323.602 659.724 325.025C656.706 328.539 654.588 332.787 650.278 335.28C646.825 337.281 643.746 340.006 640.729 342.669C636.293 346.584 631.053 348.243 625.343 348.824C623.638 348.999 622.679 348.179 622.265 346.486C621.368 342.826 619.632 339.696 616.662 337.205C613.966 334.945 612.599 332.027 613.44 328.353C614.427 324.066 612.66 320.801 609.226 318.466C605.653 316.035 601.937 313.804 598.205 311.624C596.274 310.495 595.018 309.163 594.653 306.827C594.286 304.495 592.641 303.634 589.306 303.45C587.147 303.332 585.177 304.026 584.679 306.172C584.276 307.897 584.382 309.965 584.95 311.65C586.436 316.059 588.637 320.008 593.749 321.186C601.402 322.954 603.867 328.804 604.03 335.598C604.184 341.956 607.485 345.909 612.103 349.354C614.337 351.023 616.379 352.713 615.896 356.014C615.638 357.767 616.915 358.609 618.511 358.866C623.281 359.636 627.82 358.615 632.299 357.068C633.855 356.53 635.453 355.998 637.074 355.811C639.043 355.587 640.014 356.587 639.594 358.533C639.274 360.027 638.428 361.443 637.652 362.798C635.725 366.165 633.502 369.381 631.767 372.84C629.045 378.269 624.933 382.45 620.473 386.372C618.852 387.795 617.075 389.046 615.509 390.526C612.468 393.402 609.541 396.4 606.538 399.317C602.751 402.998 601.033 407.792 599.814 412.689C599.372 414.464 599.935 416.808 600.774 418.533C604.121 425.407 602.898 432.514 602.269 439.604C602.037 442.206 600.271 443.817 598.217 445.18C595.628 446.897 593.033 448.601 590.519 450.418C585.576 453.991 584.306 457.654 585.812 463.598C586.719 467.173 586.274 468.739 582.888 470.312C578.631 472.291 576.461 475.222 575.599 479.95C575.137 482.493 572.743 484.854 570.82 486.924C567.134 490.884 563.15 494.566 559.317 498.388C557.883 499.818 556.328 500.589 554.185 500.723C551.106 500.913 548.077 501.799 544.998 502.118C544.274 502.193 543.546 502.225 542.802 502.235C540.261 502.266 538.492 499.696 539.243 497.268C540.058 494.631 539.876 492.175 538.044 489.927C536.035 487.464 534.223 484.837 532.146 482.439C530.198 480.189 529.506 477.597 529.805 474.8C530.377 469.456 528.552 464.874 525.775 460.507C523.255 456.548 520.72 452.595 518.303 448.572C516.036 444.802 516.423 440.52 516.258 436.368C516.243 435.99 516.576 435.579 516.806 435.22C516.999 434.921 517.265 434.663 517.523 434.412C525.089 427.097 524.416 420.836 519.825 411.846C517.345 406.994 514.029 402.548 510.89 398.057C509.328 395.825 508.877 393.744 509.938 391.195C511.266 388.006 511.905 384.713 510.612 381.294C510.127 380.014 504.529 375.932 503.28 376.363C501.889 376.846 500.599 377.714 499.377 378.575C497.038 380.226 495.549 379.825 494.618 377.14C494.192 375.915 493.91 374.627 493.372 373.455C492.112 370.703 490.01 369.723 487.388 371.193C484.535 372.79 481.8 373.554 478.547 372.82C477.587 372.604 476.118 373.111 475.353 373.808C471.55 377.261 467.313 377.374 462.601 376.247C458.188 375.192 453.509 374.938 450.19 371.291C448.798 369.759 447.623 368.032 446.331 366.405C445.179 364.959 444.089 363.451 442.815 362.119C441.825 361.083 440.497 360.373 439.499 359.343C437.167 356.935 435.459 354.278 436.347 350.63C437.078 347.62 436.219 344.917 434.346 342.504C433.77 341.761 433.22 340.996 432.639 340.261C430.467 337.516 430.029 334.529 430.727 331.084C431.181 328.839 431.219 326.333 430.718 324.107C429.809 320.094 430.667 316.966 433.641 314.115C436.696 311.183 439.423 307.91 442.378 304.868C443.366 303.851 444.568 303.021 445.75 302.221C446.882 301.453 448.11 300.826 449.307 300.159C451.819 298.755 453.142 296.649 452.878 293.755C452.57 290.361 453.925 288.264 457.07 286.799C460.719 285.096 464.051 282.723 467.667 280.936C469.554 280.005 471.753 279.699 473.818 279.135C475.196 278.758 476.826 278.773 477.927 278.01C482.796 274.636 488.073 274.418 493.676 275.203C496.443 275.593 499.322 275.651 502.099 275.366C506.519 274.912 509.673 277.346 512.896 279.615C513.503 280.043 513.666 281.457 513.616 282.393C513.457 285.455 514.898 287.021 517.649 288.259C520.912 289.726 524.038 291.636 526.933 293.753C532.278 297.662 536.965 297.202 541.039 291.991C544.275 287.848 549.654 286.371 554.699 288.142C558.24 289.385 561.828 290.482 565.374 291.712C566.59 292.134 567.915 292.542 568.884 293.331C572.05 295.914 575.838 296.856 579.679 297.472C581.172 297.711 583.073 297.348 584.352 296.556C586.752 295.071 586.945 293.266 585.395 290.145C584.76 288.87 584.766 288.055 585.691 286.905C587.424 284.756 588.11 282.154 587.93 279.393C587.783 277.185 586.661 276.153 584.466 276.023C583.892 275.987 583.246 275.884 582.744 276.087C579.099 277.565 575.868 276.332 572.608 274.769C567.572 272.356 562.753 272.571 558.156 276.039C555.937 277.713 553.498 277.77 551.071 276.22C549.064 274.935 547.022 273.703 544.954 272.519C542.809 271.292 541.789 269.503 541.735 267.035C541.705 265.648 542.445 264.332 543.709 263.759C544.01 263.623 544.303 263.49 544.581 263.364C546.176 262.642 548.171 262.613 549.453 261.421C550.784 260.199 552.612 249.89 552.044 248.678C551.309 247.111 553.702 245.296 555.301 244.635C557.057 243.909 558.021 245.584 558.039 247.21C558.053 248.325 560.14 251.145 559.666 250.135C558.63 247.927 561.886 242.011 559.586 242.82C558.356 243.253 560.324 241.879 561.607 240.524C562.89 239.169 563.784 239.053 564.959 238.502C566.134 237.95 567.788 237.927 568.946 237.832C571.512 237.622 580.408 235.925 580.397 232.209C580.394 230.939 583.239 231.121 582.744 230.065C582.167 228.836 583.207 227.306 584.551 227.106C586.162 226.867 585.633 230.65 586.095 231.635C587.228 234.042 592.897 228.34 594.027 230.749C594.575 231.917 594.475 235.029 596.398 234.913C597.376 234.853 597.947 233.664 599.019 233.794C602.582 234.225 604.417 231.111 606.922 229.355C607.691 228.816 608.491 226.234 606.864 226.664C604.329 227.333 607.857 220.679 605.131 220.902C603.385 221.044 602.429 219.261 601.125 218.48C598.178 216.717 594.441 218.326 591.362 217.428C590.221 217.095 589.531 216.193 588.588 214.186C587.482 211.83 581.242 214.237 579.174 213.986C578.169 213.864 578.483 212.514 577.48 213.433C576.479 214.352 576.418 214.223 576.69 215.297C576.957 216.358 575.031 217.278 574.953 218.197C574.789 220.359 574.507 220.796 573.747 220.704C571.9 220.452 570.417 220.084 568.872 221.501C565.83 224.293 563.389 228.009 560.923 231.306C560.279 232.167 559.062 232.684 558.229 233.362C555.597 235.67 554.079 244.15 551.697 241.585C549.235 238.932 548.032 239.487 544.785 241.345C543.974 241.808 542.973 242.03 542.085 241.739C541.242 241.463 540.341 241.709 539.572 242.151C537.464 243.362 535.103 244.357 532.933 245.541C531.755 246.289 529.84 246.711 528.871 245.707C528.284 245.098 527.696 244.489 527.107 243.882C524.439 241.13 521.663 241.292 519.59 244.514C516.869 248.742 517.338 251.423 520.703 254.179C523.369 256.364 525.825 258.861 528.067 261.485C528.835 262.386 529.135 264.207 528.831 265.398C528.665 266.046 528.415 266.641 528.097 267.186C526.502 269.92 522.106 269.836 520.338 267.21C519.479 265.933 518.967 264.175 518.957 262.624C518.938 259.133 516.726 256.748 515.002 254.188C514.436 253.35 512.328 252.753 511.406 253.154C510.162 253.692 509.183 255.189 508.453 256.481C507.666 257.876 507.497 259.629 506.688 261.005C505.96 262.24 504.666 262.785 503.121 261.999C501.495 261.168 501.824 259.878 502.316 258.656C503.097 256.725 503.957 254.817 504.913 252.968C506.019 250.83 505.857 249.779 503.934 248.331C499.819 245.23 495.534 245.14 491.711 248.639C489.693 250.488 488.176 252.953 486.713 255.315C485.74 256.887 485.095 258.719 484.59 260.514C483.231 265.338 479.749 267.275 475.141 267.708C471.787 268.023 468.91 268.761 467.854 272.63C467.686 273.24 465.789 273.741 464.738 273.663C462.798 273.518 460.909 272.791 458.969 272.512C454.03 271.801 452.76 270.277 453.792 265.444C454.202 263.519 455.082 261.63 456.076 259.914C457.188 257.995 457.831 256.178 457.078 253.973C456.81 253.187 456.808 252.252 456.907 251.412C457.493 246.423 459.788 245.118 464.264 247.394C467.239 248.909 470.308 249.659 473.63 249.64C476.847 249.62 479.02 247.35 478.414 244.226C477.713 240.597 476.663 237.095 473.989 234.271C472.372 232.565 470.894 230.792 471.006 228.054C471.087 226.058 469.086 225.359 467.555 224.555C464.755 223.085 464.697 222.71 466.972 220.462C469.393 218.071 469.497 215.829 467.296 213.497C465.38 211.467 464.01 211.418 461.988 213.385C460.139 215.182 457.95 216.1 455.379 216.187C453.786 216.242 452.963 215.583 452.898 213.926C452.705 208.871 454.716 203.548 459.86 201.593C462.355 200.644 462.81 199.479 462.432 196.8C462.32 196.015 462.076 195.245 462.015 194.461C461.762 191.202 463.951 188.435 467.157 188.256C469.842 188.106 472.089 187.482 473.596 185.017C473.924 184.48 475.143 183.891 475.504 184.099C476.11 184.447 476.743 185.46 476.679 186.123C476.483 188.084 476.152 190.083 475.5 191.934C474.518 194.73 473.535 197.366 475.673 200.1C476.148 200.709 476.177 201.714 476.291 202.553C476.677 205.471 477.828 207.651 480.848 208.797C482.182 209.304 483.207 210.73 484.256 211.846C484.672 212.286 484.748 213.035 485.025 213.622C486.679 217.126 489.797 217.723 492.484 214.901C493.554 213.778 494.349 212.337 495.062 210.938C496.226 208.643 497.885 207.4 500.553 207.525C501.609 207.575 502.718 207.372 503.748 207.087C505.639 206.56 506.447 205.184 506.114 203.282C505.854 201.792 505.323 200.353 505.03 198.869C504.477 196.085 505.299 194.755 508.009 194.136C510.036 193.674 511.507 192.753 511.653 190.488C511.843 187.539 510.393 184.679 508.333 183.955C506.387 183.271 505.037 184.294 503.758 185.588C502.701 186.66 501.688 187.849 500.438 188.638C498.387 189.928 496.511 189.249 495.514 187.032C494.537 184.862 493.512 182.691 492.784 180.433C491.121 175.27 492.467 171.454 497.182 168.858C502.223 166.082 505.858 162.334 507.764 156.809C508.322 155.196 509.759 153.836 510.96 152.506C514.231 148.882 515.58 144.947 513.533 140.196C513.212 139.449 513.22 138.21 513.638 137.568C514.645 136.025 515.901 134.617 517.21 133.307C519.443 131.075 521.762 128.927 524.106 126.81C525.112 125.904 526.167 124.927 527.379 124.398C530.811 122.906 534.343 121.645 537.824 120.262C539.094 119.756 540.483 119.368 541.557 118.574C545.057 115.99 548.595 116.508 551.535 119.003C556.894 123.554 563.458 125.689 569.53 128.809C571.007 129.568 572.528 130.246 574.048 130.915C578.297 132.783 581.305 135.634 582.365 140.392C582.954 143.038 584.646 143.614 587.134 142.538C588.188 142.082 589.277 141.694 590.362 141.312C593.053 140.36 594.275 138.3 593.559 135.565C593.047 133.612 592.411 131.549 594.44 130.266C596.369 129.05 598.158 130.267 599.802 131.401C603.597 134.022 609.323 132.353 611.184 127.95C611.883 126.295 612.757 125.833 614.477 126.179C619.041 127.095 623.021 124.683 624.593 120.174C624.902 119.29 625.012 118.321 625.425 117.496C625.659 117.028 626.358 116.432 626.778 116.479C630.328 116.895 634.021 116.93 636.763 119.84C638.692 121.884 641.346 122.256 643.933 122.424C645.964 122.553 647.553 121.373 648.41 119.547C649.206 117.85 648.315 116.381 647.103 115.296C645.879 114.199 644.44 113.327 643.045 112.437C638.919 109.811 638.369 107.916 640.252 103.473C640.771 102.25 641.017 100.845 641.08 99.5106C641.181 97.3499 640.849 95.1621 641.062 93.0203C641.155 92.0874 642.135 90.5267 642.728 90.5203C643.725 90.5108 644.883 91.3565 645.69 92.1375C646.249 92.6773 646.492 93.692 646.601 94.5282C647.171 98.9747 649.341 102.677 651.838 106.257C653.446 108.564 654.875 111.001 656.557 113.253C658.18 115.427 659.835 115.734 662.27 114.676C663.75 114.031 664.387 112.966 663.853 111.379C663.598 110.63 663.279 109.895 662.908 109.197C660.991 105.594 659.056 102 657.108 98.4139C655.944 96.2703 656.185 94.7634 658.258 93.3875C660.441 91.9356 662.581 90.5502 663.604 87.9295C663.849 87.3025 664.725 86.8468 665.399 86.4725C668.947 84.5132 670.111 81.8903 669.079 78.0194C667.916 73.6408 667.995 73.0206 671.912 70.8485C675.734 68.7295 678.93 66.2001 681.064 62.2606C682.518 59.5793 685.451 58.6122 688.182 57.6297C692.957 55.9099 693.991 54.5644 693.945 49.5721C693.911 46.2198 695.359 43.3975 697.087 40.7293ZM641.811 201.646C641.162 202.732 638.106 203.423 636.996 204.09C636.437 204.425 636.004 204.926 635.67 205.486C635.147 206.362 633.989 207.22 632.973 207.22C631.985 207.221 629.503 207.936 629.235 209.033C629.008 209.987 628.029 211.724 627.312 212.441C626.861 212.891 625.949 212.442 626.29 213.123C626.566 213.674 628.457 215.189 629.005 215.387C630.588 215.947 630.818 216.179 630.478 216.519C629.741 217.232 628.755 217.833 629.346 219.014C629.902 220.126 630.805 221.36 631.5 222.411C632.177 223.314 633.049 224.047 633.839 224.853C634.297 225.321 634.318 226.121 634.556 226.72L635.317 228.141C635.854 229.144 636.028 230.211 637.196 230.733L637.934 231.063C638.382 231.264 638.74 231.717 638.252 231.662C637.232 231.548 635.951 231.92 635.872 232.943C635.793 233.977 636.114 235.629 635.156 236.265C633.855 237.131 634.674 240.268 634.787 241.461C634.93 242.161 635.433 242.74 636.102 242.993C636.799 243.257 637.271 243.399 637.743 243.164C638.425 242.823 639.107 243.274 639.217 243.956C639.79 247.182 646.053 246.562 648.187 246.561C649.533 246.561 651.237 245.576 652.495 246.221C654.369 247.157 652.42 242.03 652.465 239.935C652.485 239 653.153 237.984 652.727 237.151C652.496 236.689 651.045 235.602 650.682 235.898C650.004 236.444 649.763 235.39 650.175 234.623C650.388 234.227 651.609 234.419 651.029 233.582C650.725 233.142 650.399 232.733 650.242 232.732C649.901 232.732 649.121 233.073 648.659 233.073C647.71 233.073 648.049 230.459 648.428 229.896C648.921 229.168 649.908 229.007 650.717 229.354C651.582 229.726 655.871 229.629 655.535 228.78C654.997 227.426 651.284 225.639 651.88 224.444C652.697 222.834 649.498 224.007 648.934 225.577C648.483 226.818 648.593 227.16 648.483 227.841C648.373 228.521 648.032 227.28 647.461 226.368C646.89 225.456 647.12 225.005 647.12 224.324C647.12 223.643 647.691 222.851 648.032 222.279C648.373 221.708 648.033 221.257 647.582 220.916C647.131 220.575 646.34 219.784 645.658 220.125C644.713 220.597 642.712 218.233 642.712 217.391C642.712 216.174 641.746 216.382 641.188 215.722C640.819 215.285 641.361 214.332 640.788 214.332C640.012 214.331 638.52 212.518 639.546 212.517C640.106 212.517 642.722 213.089 643.174 213.09C643.38 213.09 641.06 210.936 641.811 210.935C642.595 210.935 643.672 209.121 645.328 209.121C646.286 209.121 648.592 210.091 649.252 209.053C649.567 208.556 649.96 206.443 650.099 205.724C650.355 204.418 648.847 203.711 648.846 202.558C648.845 202.108 647.032 201.317 646.801 202.108C646.485 203.189 644.861 202.118 643.845 201.631C643.313 201.375 642.181 201.024 641.811 201.646Z" fill="#C2CDBB"/>
<path d="M993.129 456.557C994.843 456.206 997.196 457.708 998.455 459.776C999.44 461.392 999.166 464.111 997.352 464.647C996.464 464.909 994.784 464.319 994.248 463.548C993.169 461.995 992.517 460.1 991.945 458.264C991.812 457.835 992.612 456.664 993.129 456.557Z" fill="#C2CDBB"/>
<path d="M890.139 393.232C892.241 393.059 894.043 393.011 895.263 395.339C896.181 397.091 897.589 398.659 899.052 400.017C899.668 400.585 900.985 400.529 901.979 400.506C902.455 400.494 902.967 399.949 903.377 399.556C904.855 398.14 905.962 396.191 908.525 396.539C911.864 396.989 915.309 397.56 917.552 400.182C920.138 403.206 923.175 405.116 927.001 405.791C929.582 406.245 931.296 407.622 932.337 409.958C933.49 412.546 935.477 414.09 938.104 415.154C939.491 415.715 940.886 416.868 941.691 418.128C942.02 418.642 942.331 419.169 942.629 419.703C944.526 423.107 942.537 428.277 939.46 425.886C937.358 424.251 935.222 422.647 933.014 421.159C930.549 419.496 927.9 419.307 925.215 420.681C923.364 421.625 921.792 421.195 919.912 420.368C917.685 419.388 915.139 418.947 912.688 418.715C909.782 418.437 909.555 418.382 909.85 415.49C909.903 414.952 909.791 414.302 909.521 413.841C907.579 410.496 905.23 407.708 900.968 407.3C899.041 407.115 897.102 406.697 895.265 406.095C894.525 405.851 894.023 404.842 893.451 404.146C893.341 404.011 893.414 403.726 893.398 403.512C893.047 398.645 892.255 397.843 887.423 397.427C886.414 397.341 885.646 396.361 886.094 395.453C886.858 393.907 888.314 393.383 890.139 393.232Z" fill="#C2CDBB"/>
<path d="M864.438 419.849C867.016 418.774 869.446 422.906 867.134 424.473C866.845 424.669 866.533 424.832 866.197 424.96C862.849 426.235 859.339 427.307 855.656 426.448C855.006 426.296 854.151 425.779 853.963 425.235C853.784 424.714 854.221 423.837 854.628 423.301C854.991 422.824 855.673 422.333 856.237 422.305C859.198 422.164 861.76 420.969 864.438 419.849Z" fill="#C2CDBB"/>
<path d="M961.611 414.081C962.582 413.898 963.6 413.927 964.515 414.303C967.7 415.623 970.847 417.036 974.066 418.252C976.369 419.122 978.53 420.129 979.322 422.632C979.611 423.546 979.613 424.898 979.113 425.609C978.697 426.202 977.314 426.451 976.435 426.324C973.664 425.923 970.885 425.427 968.196 424.665C966.735 424.252 965.216 423.468 964.127 422.429C962.477 420.853 961.118 418.954 959.754 417.109C958.334 415.186 958.605 414.643 960.967 414.202C961.179 414.163 961.391 414.123 961.611 414.081Z" fill="#C2CDBB"/>
<path d="M813.135 417.571C812.214 417.359 812.251 415.928 813.019 415.378C814.613 414.235 816.341 413.843 817.952 414.498C822.323 416.277 826.878 415.849 831.35 416.4C832.459 416.537 833.518 417.065 834.622 417.308C836.855 417.801 839.103 418.223 841.344 418.664C843.034 418.999 844.212 420.949 842.562 421.443C842.174 421.559 841.768 421.611 841.394 421.645C839.261 421.839 837.074 421.788 834.941 421.555C831.378 421.163 827.821 420.646 824.296 419.996C820.552 419.308 816.844 418.423 813.135 417.571Z" fill="#C2CDBB"/>
<path d="M861.164 388.493C864.135 388.303 866.914 391.247 864.007 391.889C862.462 392.231 860.869 392.364 859.328 392.723C857.048 393.254 856.121 394.637 856.45 396.798C856.796 399.071 858.17 400.195 860.504 400.022C861.285 399.963 862.057 399.725 862.83 399.559C863.405 399.435 863.977 399.304 864.55 399.175C864.86 399.104 865.182 399.223 865.372 399.478C865.663 399.868 865.542 400.421 865.11 400.645C864.558 400.93 864.009 401.217 863.52 401.583C860.979 403.477 860.841 404.316 862.414 406.993C862.741 407.548 863.28 408.187 863.212 408.721C863.088 409.661 862.8 410.865 862.137 411.349C861.7 411.667 860.428 411.022 859.638 410.606C859.178 410.365 859.019 409.548 858.56 409.301C857.735 408.86 856.753 408.322 855.897 408.411C853.511 408.66 852.556 407.987 852.579 405.558C852.6 403.322 852.705 401.089 852.733 398.852C852.745 397.919 852.756 396.965 852.595 396.051C851.88 392.009 853.739 389.25 857.745 388.786C858.88 388.656 860.02 388.566 861.164 388.493Z" fill="#C2CDBB"/>
<path d="M779.862 377.309C779.863 376.725 780.58 376.112 780.995 376.522C784.463 379.888 789.057 382.062 791.379 386.647C792.907 389.667 795.357 391.872 798.219 393.716C799.564 394.582 800.984 395.81 801.624 397.214C803.274 400.834 805.588 404.27 805.624 408.481C805.637 410.045 805.282 410.887 803.357 410.498C798.605 409.538 795.623 406.493 793.15 402.599C791.932 400.684 790.482 398.875 788.902 397.244C787.304 395.593 786.318 393.864 785.688 391.57C784.83 388.437 783.196 385.491 781.714 382.556C780.869 380.881 779.86 379.302 779.862 377.309Z" fill="#C2CDBB"/>
<path d="M949.655 403.968C950.146 402.105 951.446 401.925 953.029 402.242C954.874 402.613 954.393 403.987 954.26 405.165C953.975 407.744 952.622 409.171 950.059 409.61C948.213 409.926 946.366 410.295 944.504 410.428C943.934 410.469 943.562 410.462 943.292 410.343C942.267 409.889 943.325 408.357 944.43 408.17C946.953 407.738 948.952 406.64 949.655 403.968Z" fill="#C2CDBB"/>
<path d="M876.148 402.246C878.969 401.883 881.871 401.602 884.238 403.555C884.408 403.695 884.491 403.913 884.472 404.132C884.441 404.483 884.158 404.758 883.807 404.778L878.285 405.091C875.916 405.225 873.795 402.545 876.148 402.246Z" fill="#C2CDBB"/>
<path d="M841.938 372.549C845.96 371.992 847.446 373.319 847.446 378.125C847.467 378.344 847.722 379.229 847.601 380.057C847.416 381.338 847.321 382.863 846.572 383.788C844.258 386.648 843.214 389.736 843.571 393.407C844.339 401.241 838.676 403.353 833.077 402.448C831.091 402.129 829.087 401.885 827.082 401.72C824.952 401.543 823.515 400.711 822.643 398.59C821.749 396.418 820.438 394.411 819.258 392.362C818.416 390.903 818.243 390.042 820.166 389.023C822.8 387.632 825.103 385.604 827.515 383.803C828.725 382.9 829.946 381.982 831.014 380.924C833.038 378.911 834.886 376.72 836.95 374.753C837.858 373.884 839.083 373.313 840.229 372.739C840.709 372.5 841.367 372.628 841.938 372.549Z" fill="#C2CDBB"/>
<path d="M857.593 335.154C858.066 335.145 858.752 336.59 859.029 337.47C860.413 341.876 862.976 345.589 865.606 349.306C867.079 351.389 868.317 353.659 869.493 355.93C870.219 357.328 870.563 358.915 871.19 360.367C873.376 365.424 869.62 371.101 864.077 371.078C861.365 371.067 860.631 370.126 861.604 367.687C862.952 364.318 862.453 361.488 859.897 358.774C858.522 357.315 857.797 355.255 856.693 353.522C855.54 351.708 854.218 350.001 853.087 348.173C850.459 343.931 850.838 339.968 854.369 336.433C855.141 335.658 856.494 335.177 857.593 335.154Z" fill="#C2CDBB"/>
<path d="M292.956 342.414C292.576 339.108 296.406 339.021 296.98 342.299C297.046 342.672 297.098 343.049 297.136 343.427C297.635 348.292 293.532 347.378 292.968 342.52C292.964 342.484 292.96 342.449 292.956 342.414Z" fill="#C2CDBB"/>
<path d="M263.836 333.543C265.225 331.308 267.023 330.162 269.782 330.692C271.023 330.932 272.36 330.863 273.631 330.73C278.149 330.259 281.994 331.957 285.741 334.022C285.915 334.118 286.031 334.293 286.052 334.49C286.083 334.767 285.923 335.029 285.667 335.141C284.379 335.704 283.096 336.508 281.797 336.534C276.193 336.654 270.575 336.574 264.973 336.335C262.791 336.242 262.637 335.476 263.836 333.543Z" fill="#C2CDBB"/>
<path d="M226.841 319.812C229.269 318.186 231.925 317.656 234.878 318.311C237.88 318.975 240.942 319.678 243.994 319.76C248.215 319.874 251.732 321.004 254.543 324.284C257.034 327.19 257.344 331.354 253.531 331.689C252.508 331.778 251.569 331.656 250.911 331.247C246.221 328.336 240.812 328.08 235.688 326.763C234.588 326.479 233.539 325.996 232.462 325.622C230.596 324.974 228.766 324.144 226.845 323.767C225.56 323.515 225.151 322.992 225.497 321.933C225.752 321.152 226.197 320.242 226.841 319.812Z" fill="#C2CDBB"/>
<path d="M248.748 307.08C250.283 305.088 251.308 305.048 252.699 307.135C253.929 308.978 254.866 311.021 256.126 312.846C256.962 314.052 258.1 315.066 259.168 316.101C260.143 317.048 261.253 317.859 262.201 318.828C262.481 319.113 262.612 319.832 262.448 320.185C261.933 321.304 260.064 320.607 259.078 319.869C257.585 318.753 256.049 317.607 254.543 316.419C252.977 315.184 251.616 313.631 249.927 312.612C247.048 310.881 246.69 309.75 248.748 307.08Z" fill="#C2CDBB"/>
<path d="M874.573 280.382C875.018 280.099 876.496 280.672 876.914 281.276C877.794 282.549 878.375 284.062 878.905 285.537C879.442 287.031 878.886 288.625 877.464 289.902C876.486 290.78 874.905 290.195 874.6 288.916C874.119 286.907 873.546 284.898 873.351 282.859C873.273 282.038 873.887 280.815 874.573 280.382Z" fill="#C2CDBB"/>
<path d="M894.417 228.059C896.103 227.07 898.54 227.429 899.815 228.865C900.593 229.741 900.408 230.437 899.388 230.914C897.592 231.756 897.677 233.171 897.767 234.906C897.989 239.315 899.557 243.122 901.91 246.782C903.525 249.283 902.517 252.643 901.824 255.539C901.44 257.139 901.132 258.728 901.127 260.318C901.116 264.778 898.48 265.906 894.966 266.499C892.672 266.887 890.745 267.81 889.365 269.815C888.913 270.473 888.046 270.879 887.316 271.305C885.522 272.352 883.634 273.243 881.906 274.382C879.658 275.86 878.203 275.32 877.83 272.618C877.467 269.995 878.458 267.871 880.727 266.559C882.88 265.315 885.12 264.299 885.416 261.377C885.452 261.001 886.046 260.603 886.462 260.354C890.561 257.928 893.417 254.355 895.685 250.273C896.112 249.502 896.45 248.458 896.306 247.63C895.534 243.17 894.605 238.736 893.71 234.299C893.585 233.664 893.455 232.999 893.16 232.436C892.17 230.544 892.61 229.124 894.417 228.059Z" fill="#C2CDBB"/>
<path d="M422.056 11.7752C427.563 11.4503 432.293 12.7097 435.786 17.3807C436.791 18.7243 438.434 19.5759 439.627 20.8035C440.313 21.5084 441.297 22.7568 441.069 23.3309C440.689 24.283 439.463 25.4979 438.553 25.5321C435.478 25.6461 432.341 25.5586 429.312 25.0399C425.944 24.4622 422.745 24.1884 419.611 25.8455C417.386 27.0219 416.493 28.8276 417.05 31.2069C417.567 33.4149 418.867 34.4167 421.136 34.0975C422.553 33.896 423.948 33.4601 425.328 33.0477C427.875 32.2857 430.326 32.5423 432.713 33.6141C434.653 34.4863 434.775 35.0527 433.414 36.6034C433.08 36.9815 432.576 37.2786 432.397 37.7157C432.015 38.6506 431.275 39.9616 431.63 40.5526C432.151 41.4191 433.458 42.164 434.503 42.2743C435.622 42.3921 436.938 41.9116 437.966 41.3358C439.912 40.247 441.76 38.9642 443.569 37.6493C445.959 35.9117 447.685 35.1485 449.164 35.4382C452.845 36.1592 451.906 41.54 449.967 44.7508C448.798 46.6911 447.42 48.1405 444.979 48.4598C442.27 48.8134 440.852 50.9422 439.585 53.0838C437.894 55.9381 436.347 58.8818 434.591 61.6961C433.091 64.1001 433.225 66.4878 434.242 68.9393C434.765 70.203 435.358 71.4516 436.042 72.6336C436.764 73.8803 436.742 74.9788 435.674 75.9461C432.905 78.4508 432.141 81.4037 433.424 84.9422C434.125 86.8711 433.442 88.4803 431.892 89.7479C429.55 91.6616 428.68 93.9468 429.385 97.033C430.012 99.7808 429.535 102.287 426.521 103.773C424.422 104.809 422.576 106.35 420.545 107.54C416.379 109.982 416.115 113.963 419.987 116.875C422.178 118.524 424.646 119.976 424.273 123.34C424.106 124.845 423.684 126.027 422.15 126.813C421.212 127.296 420.338 128.311 419.906 129.294C418.905 131.574 417.192 132.819 414.898 133.347C412.088 133.999 409.262 134.6 406.421 135.101C403.021 135.7 399.794 136.901 397.994 139.871C395.704 143.651 392.291 144.656 388.359 145.082C387.147 145.215 385.942 145.495 384.762 145.816C381.67 146.658 379.664 148.621 378.658 151.697C376.233 159.124 371.112 164.771 365.88 170.234C362.9 173.349 360.659 172.995 357.548 169.905C356.887 169.248 356.034 168.784 355.382 168.123C354.586 167.313 353.498 166.487 353.253 165.493C352.381 161.943 351.505 158.34 351.22 154.712C350.975 151.618 350.709 148.731 348.759 146.16C347.233 144.148 347.455 141.057 349.643 139.053C353.048 135.934 353.584 132.574 351.605 128.556C350.836 126.994 351.99 126.136 353.096 125.398C357.782 122.268 358.048 117.086 353.582 113.675C352.161 112.59 351.697 111.445 352.269 109.765C355.081 101.506 353.523 92.9863 353.394 84.6151C353.291 78.0665 346.076 72.2403 338.563 71.4022C335.745 71.0886 333.184 70.3413 331.528 67.7625C329.615 64.7827 329.975 62.6333 332.816 60.4744C335.637 58.3327 335.944 57.4297 335.03 53.9862C334.227 50.9609 337.406 47.8347 340.47 48.6385C340.812 48.7279 341.15 48.9313 341.486 48.9237C345.492 48.8209 351.015 44.8625 352.387 41.0086C353.899 36.7576 356.13 33.4299 360.788 31.8944C362.913 31.1931 364.576 29.1484 366.519 27.8143C368.027 26.7768 369.606 25.8322 371.22 24.9657C373.112 23.9471 375.131 23.1587 376.993 22.0946C381.305 19.6279 385.593 20.8206 387.881 25.2332C390.08 29.4748 394.125 29.9617 396.972 26.0985C398.215 24.411 399.21 22.3032 399.575 20.2528C400.848 13.1092 405.362 11.646 411.1 11.9862C414.735 12.2009 418.411 11.9881 422.056 11.7752Z" fill="#C2CDBB"/>
<path d="M423.703 144.945C425.573 144.081 427.395 143.433 429.25 144.505C432.695 146.494 436.153 146.247 439.646 144.856C442.253 143.819 444.56 144.421 446.831 145.795C448.165 146.602 448.545 147.669 447.992 149.089C446.487 152.95 444.3 155.956 439.868 156.988C437.92 157.442 436.219 158.921 434.378 159.877C431.438 161.404 427.445 162.981 425.203 160.543C424.777 160.079 424.468 159.509 424.256 158.826C423.695 157.021 422.747 155.825 420.887 155.257C419.302 154.774 418.901 153.693 419.473 152.032C420.392 149.358 420.588 146.388 423.703 144.945Z" fill="#C2CDBB"/>
<path d="M623.452 64.9842C624.53 65.0735 626.094 66.0735 626.381 67.0047C626.666 67.9283 625.873 69.4746 625.105 70.3563C624.241 71.3521 622.924 72.002 621.721 72.6444C617.156 75.0863 614.874 78.8969 614.026 83.9823C613.335 88.1364 612.16 92.2052 612.275 96.4696C612.304 97.4692 612.16 98.5569 612.494 99.4539C613.49 102.122 614.716 104.702 615.776 107.349C616.018 107.954 616.194 108.781 615.974 109.338C615.691 110.056 615.368 110.759 615.012 111.49C614.217 113.124 612.265 113.425 610.617 112.658C608.225 111.546 605.793 110.516 603.35 109.526C602.626 109.234 601.778 109.262 601.035 109C598.665 108.169 598.411 107.228 598.936 104.778C600.175 98.9879 602.509 93.3533 601.656 87.2362C601.403 85.4137 602.137 84.0259 603.526 82.8875C606.662 80.3183 609.624 77.6675 611.112 73.6522C611.494 72.6185 613.076 71.782 614.282 71.3563C616.899 70.4308 619.076 69.2851 620.334 66.5506C620.733 65.6859 622.426 64.9006 623.452 64.9842Z" fill="#C2CDBB"/>
<path d="M520.021 46.4627C520.518 46.2214 521.269 46.4513 521.895 46.533C524.285 46.8447 526.668 47.3183 529.07 47.4627C530.517 47.5482 531.781 47.5441 532.547 49.0321C533.347 50.5866 533.096 51.9973 532.013 53.242C531.408 53.9356 530.639 54.5095 529.873 55.034C527.382 56.7387 526.927 58.1355 528.107 60.9139C528.725 62.3732 529.493 63.7736 530.038 65.2557C530.382 66.1888 530.752 67.2916 530.559 68.2C530.266 69.5797 529.834 71.419 528.833 72.0252C527.704 72.7093 525.878 72.2744 524.359 72.2459C524.055 72.24 523.754 71.8805 523.465 71.6639C519.297 68.5434 517.099 69.3609 516.255 74.4217C515.898 76.5654 514.895 78.1119 512.708 78.5242C510.656 78.9119 509.335 77.6772 508.234 76.119C506.591 73.7872 504.861 71.5122 503.276 69.1424C502.778 68.3976 502.521 67.4931 502.198 66.6334C502.126 66.442 502.232 66.2275 502.429 66.1748C502.592 66.1315 502.698 65.9758 502.679 65.809C502.386 63.239 502.137 60.6609 501.766 58.1043C501.469 56.0655 502.266 54.7121 504.098 53.9881C505.565 53.4048 507.146 53.0954 508.586 52.4627C510.446 51.6456 512.23 50.6442 514.025 49.6864C516.028 48.6203 517.983 47.4547 520.021 46.4627Z" fill="#C2CDBB"/>
<path d="M335.072 0.467609C336.089 -0.153803 337.735 -0.0415544 339.029 0.156085C341.159 0.481091 343.217 1.26399 345.344 1.63265C346.955 1.91201 348.717 2.22512 350.255 1.86214C354.715 0.805756 357.917 2.69858 360.446 5.94612C362.447 8.51355 364.794 10.2663 367.941 11.1063C370.455 11.7771 371.28 13.6695 369.646 15.661C367.666 18.0707 365.364 20.2981 362.897 22.2137C358.692 25.4804 354.281 28.489 349.892 31.5125C347.645 33.0595 345.315 34.5115 342.919 35.8133C338.862 38.0196 334.622 39.9024 330.665 42.2664C328.962 43.2851 327.537 45.0075 326.408 46.6912C324.825 49.0552 323.008 51.058 320.327 51.993C317.64 52.928 316.33 54.7828 315.603 57.4149C314.175 62.5897 312.054 63.5325 307.043 61.366C304.66 60.336 302.366 59.0812 299.949 58.1424C296.952 56.9756 293.904 56.8432 291.542 59.4334C290.715 60.3418 289.94 62.0025 290.225 63.0155C290.498 63.9903 292.079 64.9789 293.248 65.2449C295.69 65.7998 298.256 65.7919 300.737 66.2157C300.789 66.2245 300.841 66.2355 300.892 66.2486C302.235 66.5912 302.788 69.0478 301.504 69.5682C299.423 70.4179 297.241 71.0258 295.091 71.7057C294.844 71.7838 294.583 71.6344 294.529 71.3811C294.484 71.1713 294.295 71.0254 294.08 71.0351C290.62 71.1911 287.157 71.3472 283.693 71.5086C279.731 71.693 278.311 70.1857 278.695 66.2235C278.842 64.7164 279.103 63.1975 279.027 61.7C278.967 60.5105 278.748 59.1442 278.087 58.2264C277.409 57.2839 276.126 56.3017 275.071 56.2616C274.222 56.2292 272.829 57.417 272.532 58.3368C271.502 61.5578 268.994 63.0303 265.005 62.7606C262.838 62.6142 261.929 61.326 261.842 59.2127C261.76 57.2648 261.261 55.3207 260.811 53.4051C260.467 51.9419 258.859 50.5187 260.204 49.0194C261.84 47.2008 263.965 46.081 266.559 46.4305C269.115 46.7726 271.667 47.1524 274.208 47.5838C274.898 47.6997 275.601 47.9639 276.205 48.3192C279.955 50.5255 284.079 51.0615 288.308 50.9969C290.827 50.9588 292.886 49.874 294.353 47.7381C296.405 44.747 296.377 43.6198 294.045 40.8397C291.097 37.324 291.211 36.4572 293.664 32.6698C294.92 30.7295 295.72 28.4207 296.338 26.1707C296.883 24.1886 297.819 22.7575 299.358 21.3797C300.837 20.0551 301.819 18.1618 302.951 16.4686C303.46 15.7065 303.805 14.8322 304.208 14.0018C306.684 8.88623 311.004 6.76172 316.426 5.92366C319.438 5.45802 322.258 3.6794 325.27 3.28401C328.736 2.82982 332.011 2.3376 335.072 0.467609Z" fill="#C2CDBB"/>
<path d="M232.903 30.8719C234.062 30.4329 234.824 30.5996 235.245 31.5877C236.051 33.4765 235.476 35.6539 235.007 37.6532C234.53 39.6882 234.687 41.3623 236.568 42.8407C237.38 43.4791 237.68 45.0602 237.775 46.2479C237.908 47.9563 237.781 49.675 239.778 50.3592C241.764 51.0414 243.469 50.2182 244.525 48.6639C245.458 47.2956 245.875 45.5716 246.514 44.0037C246.785 43.3331 247.021 42.101 247.31 42.0887C248.165 42.0564 249.622 42.2973 249.803 42.8026C250.97 46.0428 252.238 49.3308 252.688 52.7078C252.954 54.7012 250.668 56.0597 248.559 56.4227C246.917 56.7039 245.526 56.4529 243.916 55.995C242.365 55.5522 240.436 56.216 238.726 56.6151C236.212 57.2023 233.758 58.0367 231.252 58.6619C229.946 58.9869 228.903 58.464 228.699 57.033C228.158 53.2171 225.543 51.6757 222.198 50.6932C218.111 49.4884 217.932 49.1464 218.399 44.869C218.61 42.9554 218.654 41.1743 217.385 39.5096C217.077 39.1087 217.204 37.8284 217.578 37.5487C218.939 36.5339 220.414 35.5847 221.983 34.9481C225.581 33.4886 229.27 32.2497 232.903 30.8719Z" fill="#C2CDBB"/>
<path d="M583.805 25.766C584.551 23.5814 587.336 24.6115 588.201 26.7518C589.353 29.591 590.792 30.0494 593.401 28.491C594.874 27.6112 596.379 26.7537 597.952 26.0848C599.7 25.3418 600.613 26.2978 600.613 27.9891C600.613 29.4182 600.594 30.9671 600.065 32.2518C599.032 34.7679 597.941 37.3679 596.318 39.5096C594.327 42.1378 591.17 42.5615 588.044 42.1092C586.375 41.8679 585.332 42.1547 584.528 43.7528C584.118 44.568 583.183 45.4783 582.341 45.6532C577.883 46.5805 573.369 47.3369 569.221 44.4979C566.486 42.6279 566.374 42.1107 567.278 38.9959C567.634 37.7741 567.787 36.4458 567.757 35.1707C567.692 32.305 569.414 30.6345 572.301 31.0487C573.289 31.1912 574.288 31.427 575.214 31.7918C579.338 33.4204 582.413 31.8945 583.35 27.575C583.483 26.9555 583.608 26.342 583.805 25.766Z" fill="#C2CDBB"/>
<path d="M283.981 38.1473C284.377 38.0637 285.382 39.0573 285.468 39.6502C285.662 40.9856 285.569 42.3645 285.547 43.7322C285.541 44.0433 285.364 44.327 285.084 44.4622C284.813 44.5929 284.492 44.5627 284.249 44.3867C282.988 43.476 281.688 42.6081 280.542 41.5692C280.17 41.2306 280.065 39.8592 280.301 39.7147C281.433 39.0192 282.691 38.4229 283.981 38.1473Z" fill="#C2CDBB"/>
<path d="M683.32 29.2127C683.041 27.3634 685.327 25.7562 687.054 26.4751C687.101 26.4949 687.148 26.5155 687.195 26.5369C688.417 27.0975 689.517 27.9813 690.559 28.8573C692.776 30.7272 693.007 32.4479 691.016 34.5858C689.252 36.4804 687.752 38.3918 687.404 41.0369C687.3 41.8345 685.937 41.5947 685.643 40.8461C685.468 40.4019 685.331 40.0058 685.249 39.5985C684.548 36.1474 683.847 32.6942 683.32 29.2127Z" fill="#C2CDBB"/>
<path d="M780.579 23.1014C782.395 22.0998 784.586 22.0983 786.615 22.5279C787.31 22.6751 787.986 22.8053 788.665 22.9041C790.423 23.1626 792.209 23.4016 793.982 23.3807C796.107 23.3541 797.195 24.3219 796.533 26.3553C796.134 27.579 795.14 28.6336 794.308 29.6844C793.207 31.0755 791.996 32.3793 790.849 33.7381C790.111 34.616 789.463 35.5757 788.677 36.408C787.187 37.991 785.647 38.5403 783.574 37.0848C782.483 36.3171 780.845 35.7733 779.564 35.9442C777.124 36.2691 775.852 35.2902 774.651 33.3651C772.47 29.8762 772.964 27.563 776.546 25.5828C777.926 24.8208 779.194 23.8597 780.579 23.1014Z" fill="#C2CDBB"/>
<path d="M269.24 24.992C269.375 22.877 270.999 21.9744 273.099 22.2879C273.454 22.3411 273.809 22.3911 274.164 22.4481C278.493 23.1493 278.573 23.242 278.575 27.6776C278.577 32.7668 276.684 35.479 271.802 36.7694C271.188 36.9319 269.503 35.5624 269.429 34.7948C269.113 31.5489 269.033 28.2493 269.24 24.992Z" fill="#C2CDBB"/>
<path d="M248.705 25.8211C250.666 24.2271 252.587 23.8326 255.151 24.7556C256.363 25.1919 257.139 26.8339 256.245 27.7616C254.155 29.9279 252.141 32.2426 249.724 33.9832C248.743 34.6883 246.346 34.6365 245.419 33.8953C244.343 33.0382 244.112 31.0616 243.675 29.5243C243.609 29.2903 244.386 28.7607 244.828 28.453C246.111 27.5579 247.498 26.8017 248.705 25.8211Z" fill="#C2CDBB"/>
<path d="M655.841 12.4891C657.399 11.7842 658.746 11.9841 659.563 13.4891C661.281 16.6552 664.185 17.7631 667.448 18.0311C672.577 18.4492 676.222 20.4412 677.093 25.9676C677.223 26.8026 677.406 27.6289 677.619 28.5389C678.003 30.1751 678.035 32.6833 676.394 33.0428C674.421 33.4723 672.338 33.704 670.327 33.5672C668.125 33.419 665.959 32.7417 663.768 32.3446C660.275 31.7117 657.783 29.3613 655.23 27.2176C654.586 26.6759 654.586 25.273 654.445 24.245C654.196 22.4321 654.298 20.541 653.838 18.7909C653.011 15.6135 653.576 13.5134 655.841 12.4891Z" fill="#C2CDBB"/>
<path d="M802.745 24.9676C804.936 22.7879 811.08 22.4286 813.336 24.4979C813.864 24.9825 814.39 25.9123 814.278 26.5223C814.181 27.0524 813.239 27.6601 812.576 27.8065C809.516 28.4846 806.218 28.3098 803.217 27.4061C801.928 27.0184 801.614 26.0907 802.745 24.9676Z" fill="#C2CDBB"/>
</svg>