<svg width="41" height="41" viewBox="0 0 41 41" fill="none" xmlns="http://www.w3.org/2000/svg">
<path d="M41 20.218C41 31.3841 31.8218 40.436 20.5 40.436C9.17816 40.436 0 31.3841 0 20.218C0 9.05192 9.17816 0 20.5 0C31.8218 0 41 9.05192 41 20.218Z" fill="#2F4720"/>
<path d="M12 26.0217C12 26.6083 12.4741 27.0838 13.0588 27.0838H28.9412C29.5259 27.0838 30 26.6083 30 26.0217C30 25.4351 29.5259 24.9596 28.9412 24.9596H13.0588C12.4741 24.9596 12 25.4351 12 26.0217Z" fill="white"/>
<path d="M12 19.9525C12 20.5391 12.4741 21.0146 13.0588 21.0146H28.9412C29.5259 21.0146 30 20.5391 30 19.9525C30 19.3659 29.5259 18.8904 28.9412 18.8904H13.0588C12.4741 18.8904 12 19.3659 12 19.9525Z" fill="white"/>
<path d="M12 13.8833C12 14.4699 12.4741 14.9454 13.0588 14.9454H28.9412C29.5259 14.9454 30 14.4699 30 13.8833C30 13.2967 29.5259 12.8212 28.9412 12.8212H13.0588C12.4741 12.8212 12 13.2967 12 13.8833Z" fill="white"/>
</svg>
